<?xml version="1.0" encoding="UTF-8" standalone="no"?>
<!-- Generator: Adobe Illustrator 16.0.0, SVG Export Plug-In . SVG Version: 6.00 Build 0)  -->

<svg
   xmlns:dc="http://purl.org/dc/elements/1.1/"
   xmlns:cc="http://creativecommons.org/ns#"
   xmlns:rdf="http://www.w3.org/1999/02/22-rdf-syntax-ns#"
   xmlns:svg="http://www.w3.org/2000/svg"
   xmlns="http://www.w3.org/2000/svg"
   xmlns:sodipodi="http://sodipodi.sourceforge.net/DTD/sodipodi-0.dtd"
   xmlns:inkscape="http://www.inkscape.org/namespaces/inkscape"
   version="1.1"
   id="Layer_1"
   x="0px"
   y="0px"
   width="205.24667"
   height="89"
   viewBox="0 0 0.0085250001 70.893146"
   enable-background="new 0 0 3000 3000"
   xml:space="preserve"
   inkscape:version="0.92.1 r15371"
   sodipodi:docname="logo.svg"
   inkscape:export-filename="/home/ben/docs/org/commandodev.com/static/img/logo.png"
   inkscape:export-xdpi="72.000664"
   inkscape:export-ydpi="72.000664"><metadata
     id="metadata3644"><rdf:RDF><cc:Work
         rdf:about=""><dc:format>image/svg+xml</dc:format><dc:type
           rdf:resource="http://purl.org/dc/dcmitype/StillImage" /><dc:title></dc:title></cc:Work></rdf:RDF></metadata><defs
     id="defs3642" /><sodipodi:namedview
     pagecolor="#ffffff"
     bordercolor="#666666"
     borderopacity="1"
     objecttolerance="10"
     gridtolerance="10"
     guidetolerance="10"
     inkscape:pageopacity="0"
     inkscape:pageshadow="2"
     inkscape:window-width="1918"
     inkscape:window-height="1078"
     id="namedview3640"
     showgrid="false"
     fit-margin-top="2"
     fit-margin-left="2"
     fit-margin-right="2"
     fit-margin-bottom="2"
     inkscape:zoom="5.6568543"
     inkscape:cx="47.609827"
     inkscape:cy="83.118697"
     inkscape:window-x="0"
     inkscape:window-y="0"
     inkscape:window-maximized="0"
     inkscape:current-layer="Layer_1"
     scale-x="1e-05"
     inkscape:pagecheckerboard="true" /><path
     style="fill:#ffffff;fill-opacity:1;stroke:none;stroke-width:0.79655218;stroke-opacity:1"
     d="m -53.543007,21.432978 2.541166,0.211218 0.316827,15.444999 h -2.857993 z"
     id="rect4773"
     inkscape:connector-curvature="0"
     sodipodi:nodetypes="ccccc" /><g
     id="g3601"
     transform="matrix(0.1139459,0,0,0.1139459,-185.51714,-135.3308)"
     style="fill:#686868;fill-opacity:1;stroke:none;stroke-opacity:1"><g
       id="g3603"
       style="fill:#686868;fill-opacity:1;stroke:none;stroke-opacity:1"><g
         id="g3605"
         style="fill:#686868;fill-opacity:1;stroke:none;stroke-opacity:1"><path
           id="path3607"
           style="fill:#686868;fill-opacity:1;stroke:none;stroke-opacity:1"
           d="m 1186.4545,1551.7802 c 0,-0.628 -0.435,-5.664 -0.308,-6.521 0,0.034 0,0.034 0,-0.168 -0.397,-22.843 -1.789,-116.19 -3.569,-146.781 -0.599,-18.089 -1.363,-36.126 -2.413,-54.164 -1.405,-23.614 -5.441,-48.452 -8.082,-71.999 -2.219,-20.087 -5.442,-40.154 -8.243,-60.289 -0.279,-2.286 -1.126,-4.539 -1.734,-6.817 -0.257,0 -0.527,-3.357 -0.793,-3.383 -0.257,0.025 -0.527,3.383 -0.797,3.383 -0.625,2.278 -1.456,4.531 -1.713,6.817 -2.852,20.134 -6.07,40.201 -8.285,60.289 -2.645,23.547 -6.657,48.385 -8.002,71.999 -1.101,18.038 -1.865,36.075 -2.455,54.164 -1.789,30.591 -3.21,123.938 -3.577,146.781 0,0.202 0,0.202 0,0.168 0.093,0.857 -0.333,5.894 -0.333,6.521 -0.063,2.811 -0.295,5.688 0,8.514 0.101,0.793 0.038,1.455 -0.093,1.982 h 25.255 25.268 c -0.165,-0.527 -0.202,-1.189 -0.126,-1.982 0.295,-2.827 0.089,-5.704 0,-8.514 z m -3.155,-38.606 -21.986,-20.101 v -111.946 l 18.316,14.531 c 0.856,2.752 3.67,117.516 3.67,117.516 z"
           inkscape:connector-curvature="0" /></g></g></g><polygon
     points="1291.023,1386.898 1218.548,1386.898 1316.385,1531.996 1218.548,1677.09 1291.023,1677.09 1387.244,1531.996 "
     id="polygon3597"
     style="fill:#006636;fill-opacity:1"
     transform="matrix(0.11665994,0,0,0.11665994,-188.08172,-139.21795)" /><polygon
     points="1021.438,1386.898 1093.909,1386.898 996.073,1531.996 1093.909,1677.09 1021.438,1677.09 925.204,1531.996 "
     id="polygon3599"
     style="fill:#006636;fill-opacity:1"
     transform="matrix(0.11665994,0,0,0.11665994,-188.08172,-139.21795)" /><path
     style="fill:#222222;stroke-width:0.67707562;fill-opacity:1"
     inkscape:connector-curvature="0"
     id="path3609"
     d="m -48.503458,42.551424 h -4.691268 -2.87292 -1.819254 c -0.462396,0 -0.849812,0.376318 -0.849812,0.839641 0,0.394126 0.286458,0.71032 0.656554,0.799897 h 2.531653 c -0.0095,0.02641 -0.02119,0.03656 -0.03033,0.0696 l -0.05674,0.254783 c -0.07691,0.394126 -0.123058,0.927188 -0.149491,1.403375 -0.0082,0.01422 -0.0072,0.03453 -0.0072,0.0501 -0.0041,0.102781 -0.0068,0.206238 -0.0095,0.309153 -0.0027,0.09168 -0.0061,0.169066 -0.0087,0.246997 -0.0081,0.271982 -0.01002,0.463323 -0.01002,0.463323 0.02932,0 0.026,0.02437 0.02837,0.04401 0,0.01422 0.0014,0.04062 0.01056,0.03724 0.07885,-0.02641 0.06053,0.09845 0.130242,0.08166 0.0041,0.01693 0.0082,0.0325 0.0091,0.05078 0.0027,0.05687 0,0.114832 0.0034,0.171571 0.0041,0.08707 -0.01253,0.141306 -0.120669,0.148009 -0.03507,0 -0.08124,0.07455 -0.116795,0.118217 -0.09753,0.119301 -0.02749,0.247133 -0.05389,0.367314 -0.01672,0.07692 0.06974,0.09757 0.08945,0.156675 0.0041,0.01083 0.04618,0.02505 0.04421,0.06094 0,0.0088 0.01063,0.02708 0.0149,0.02641 0.07737,-0.0088 0.105746,0.06967 0.126938,0.106369 0.03555,0.06365 0.01672,0.150852 0.01063,0.228784 -0.0027,0.04333 -0.08512,0.0325 -0.06916,0.09364 -0.06826,-0.01896 -0.07361,0.07069 -0.128306,0.0736 -0.03033,0 -0.02641,0.02437 -0.02749,0.04333 -0.0095,0.157556 -0.0087,0.316194 0.0041,0.47375 0.0014,0.03047 -0.0072,0.07455 0.05051,0.06838 0.02316,0 0.02207,0.02234 0.02316,0.03927 0.0014,0.01557 -0.0034,0.04401 0.01781,0.04062 0.07976,-0.01219 0.109158,0.07502 0.120669,0.100952 0.02986,0.0692 0.03074,0.163988 -0.0027,0.233727 -0.01672,0.03589 -0.04855,0.09946 -0.118732,0.10278 -0.08306,0.0068 -0.149498,0.07644 -0.152342,0.159519 -0.0041,0.126816 0.0041,0.254242 -0.0054,0.37923 -0.0054,0.06094 0.08307,0.03589 0.06629,0.09276 0.06676,0.0081 0.05525,0.09662 0.125909,0.11815 0.0327,0.0095 0.09572,0.05552 0.09754,0.121129 0.0027,0.06026 0.0041,0.121129 0.0034,0.181727 0,0.125936 -0.0476,0.179831 -0.169208,0.198045 -0.03033,0.0068 -0.05918,0 -0.05335,0.04604 0.0014,0.0068 0.0014,0.01354 -0.0027,0.01625 -0.124995,0.09039 -0.04421,0.221945 -0.06486,0.332647 -0.0087,0.04604 0,0.09614 -0.0014,0.146181 -0.0014,0.06913 0.0072,0.115306 0.09469,0.141305 0.0327,0.0095 0.08751,0.06026 0.128299,0.09885 0.134569,0.136499 0.04719,0.29033 0.06304,0.435428 0.002,0.01422 0.0014,0.03115 -0.01584,0.03453 -0.06107,0.0068 -0.112463,0.01422 -0.163853,0.06568 -0.02505,0.02505 -0.04807,0.04198 -0.04807,0.07793 0.0014,0.157556 0.0041,0.316195 0.0061,0.47375 0.0014,0.06094 0.08705,0.04875 0.08797,0.107249 0.04855,-0.0088 0.05762,0.0413 0.08216,0.05552 0.123058,0.0736 0.132178,0.184571 0.129328,0.306512 -0.002,0.02099 -0.002,0.0413 -0.002,0.06094 -0.0027,0.10515 -0.05721,0.162904 -0.162031,0.17042 -0.06107,0 -0.132633,0.08186 -0.131157,0.143811 0.0014,0.0717 -0.0034,0.143811 0.0027,0.21443 0.0054,0.0589 -0.03555,0.132097 0.05051,0.171638 0.01063,0.0068 0.0091,0.04266 0.0091,0.065 0,0.03589 0.02119,0.04198 0.04658,0.06229 0.05437,0.04333 0.117703,0.07197 0.172058,0.112326 0.04421,0.0325 0.09663,0.08362 0.08216,0.158707 -0.002,0.0068 0.0041,0.01354 0.0061,0.01422 0.133662,0.02031 0.05051,0.119233 0.06737,0.179695 0.0041,0.01625 0.0034,0.04333 -0.01882,0.0413 -0.07155,-0.0068 -0.0539,0.100952 -0.123973,0.09141 0.03121,0.08274 -0.09902,0.05484 -0.08842,0.124988 0.0014,0.0068 -0.03988,0.01422 -0.06202,0.02031 -0.01584,0.0068 -0.03704,0 -0.05044,0.0068 -0.03988,0.02573 -0.02505,0.06974 -0.02119,0.100952 0.0077,0.05958 -0.03751,0.138869 0.02972,0.170691 0.04272,0.02167 0.04374,0.04198 0.04509,0.07543 0,0.02505 0.0061,0.05417 0.0014,0.07692 -0.02018,0.08511 0.05958,0.105827 0.09754,0.147129 0.03792,0.04062 0.08945,0.06825 0.117818,0.118691 0.0014,0 0.0014,0.0068 0.002,0.0081 0.154739,0.04875 0.05911,0.17692 0.08318,0.26819 0.0072,0.02302 -0.0034,0.0501 -0.0027,0.07678 0.0014,0.03656 -0.01151,0.0474 -0.04902,0.05958 -0.04327,0.01489 -0.07258,0.06094 -0.110526,0.09134 -0.123972,0.102916 -0.07019,0.2472 -0.05335,0.362913 0.01063,0.08619 0.04184,0.216325 0.136505,0.249908 0.06006,0.02099 0.06303,0.09378 0.130242,0.09378 0.02119,0 0.02749,0.429673 0.0077,0.428792 -0.06642,-0.0068 -0.05288,0.10278 -0.12637,0.07976 -0.02837,-0.0088 -0.02404,0.02437 -0.02641,0.04401 -0.01151,0.147128 0.0054,0.292158 0.0041,0.439286 -0.0014,0.01219 -0.002,0.03115 0.01686,0.03453 0.08843,0.01422 0.136512,0.09411 0.194165,0.145978 0.06006,0.05281 0.113945,0.14618 0.08648,0.249976 -0.0095,0.03385 -0.0054,0.06913 -0.0034,0.103796 0.0087,0.08213 -0.05234,0.123972 -0.104716,0.155795 -0.104378,0.06094 -0.131272,0.1973 -0.05139,0.29121 0.02925,0.03453 0.01239,0.08274 0.01537,0.124108 0.0041,0.09899 0.05911,0.160399 0.155762,0.172045 0.04956,0.0068 0.125001,0.08748 0.136505,0.136363 0.0087,0.0325 -0.0061,0.07705 0.05288,0.09154 0.03467,0.0088 0.01882,0.194591 -0.01496,0.218086 -0.0082,0.0068 -0.02735,0.01016 -0.02735,0.01422 0.0087,0.106166 -0.04807,0.136499 -0.142768,0.132639 -0.02119,0 -0.01489,0.02708 -0.01672,0.04266 -0.01402,0.137988 -0.0034,0.276382 0.0041,0.412949 0.0014,0.02641 0.0068,0.04536 0.03886,0.04333 0.03358,0 0.0476,0.01422 0.0476,0.04537 0,0.0176 0.01239,0.02437 0.02925,0.02505 0.0923,0.0074 0.154285,0.04943 0.174455,0.146181 0,0 0.002,0.0068 0.0041,0.0068 0.134115,0.02437 0.06304,0.131285 0.0784,0.20055 0.0077,0.02708 0.0027,0.05891 -0.0014,0.08606 -0.0061,0.03927 -0.0082,0.06703 -0.06053,0.09141 -0.04753,0.02099 -0.08318,0.0738 -0.147102,0.07495 -0.0041,0 -0.01063,0.02505 -0.01063,0.03724 -0.0041,0.109618 -0.01584,0.220117 0.01537,0.324996 0.02302,0.07258 0.05092,0.151394 0.153831,0.150378 0.05762,0 0.07121,0.05891 0.112463,0.08612 0.09036,0.06094 0.08512,0.169134 0.07361,0.271101 -0.0041,0.03182 0.0091,0.0717 -0.04658,0.07353 -0.02316,0 -0.01347,0.02776 -0.01781,0.04198 -0.01252,0.04469 0.02018,0.10691 -0.05958,0.121128 -0.02119,0 -0.01198,0.197503 0.01002,0.202852 0.05193,0.01083 0.04137,0.04672 0.04225,0.07874 0.002,0.06094 0.0095,0.122145 0.0041,0.180712 0,0 0.002,0.0068 0.002,0.0088 l 0.02119,0.578696 c -0.0014,0.04943 0.002,0.08646 0.002,0.08646 h -0.002 c 0.06588,0.564207 -0.08124,1.997576 -0.08124,1.997576 l -0.002,-0.0068 c -0.03649,0.443688 -0.120669,0.95312 -0.288854,1.526196 l -0.03704,0.295138 c -0.0091,0.295069 0.07498,0.553644 0.258663,0.79448 0.0095,0.0176 0.02735,0.04536 0.03704,0.128441 0.138441,0.812356 0.387869,1.080072 1.180935,1.245887 0.140838,0.03182 0.282584,0.04198 0.423423,0.0474 0.02553,0 0.05051,0.0081 0.076,0.0081 0.0061,0 0.01165,0 0.01781,0 0.0061,0 0.01151,0 0.01781,0 0.02553,0 0.05051,-0.0074 0.07543,-0.0081 0.141292,-0.0068 0.283153,-0.01625 0.423991,-0.0474 0.793066,-0.165815 1.042148,-0.433531 1.180935,-1.245887 0.0095,-0.08314 0.02749,-0.110634 0.03704,-0.128441 0.183684,-0.240768 0.267777,-0.499411 0.258657,-0.79448 l -0.03704,-0.295138 c -0.168301,-0.572941 -0.252279,-1.082508 -0.288854,-1.526196 l -0.0027,0.0068 c 0,0 -0.147108,-1.433369 -0.08079,-1.997576 l 0.0014,-0.03589 c 0.0014,-0.01151 0.0014,-0.0149 0.0014,-0.0325 l 0.02119,-0.604764 c -0.0054,-0.05823 0.0027,-0.119639 0.0041,-0.180711 0.0014,-0.03182 -0.0095,-0.06825 0.04184,-0.07874 0.02207,-0.0068 0.03176,-0.199941 0.01056,-0.202784 -0.07988,-0.01422 -0.04719,-0.07692 -0.06006,-0.121129 -0.0041,-0.01422 0.0054,-0.04063 -0.01781,-0.04198 -0.05525,0 -0.04184,-0.04198 -0.04611,-0.07346 -0.01165,-0.101967 -0.01686,-0.210164 0.07349,-0.271101 0.04137,-0.02708 0.05484,-0.08843 0.112469,-0.08612 0.102888,0 0.130235,-0.07793 0.153371,-0.150446 0.03169,-0.104811 0.02018,-0.21531 0.01584,-0.324929 0,-0.01219 -0.0061,-0.03724 -0.01056,-0.03724 -0.06392,0 -0.09993,-0.05417 -0.147108,-0.07502 -0.05227,-0.0237 -0.05478,-0.05213 -0.06053,-0.09134 -0.0034,-0.02708 -0.0087,-0.05891 -0.0014,-0.08606 0.01584,-0.06913 -0.05572,-0.176513 0.07885,-0.200549 0.0027,0 0.0041,-0.0068 0.0041,-0.0068 0.02018,-0.09662 0.0817,-0.138462 0.174448,-0.146181 0.01686,0 0.02925,-0.0074 0.02925,-0.02505 0,-0.03047 0.01347,-0.04739 0.04719,-0.04536 0.0327,0 0.03792,-0.01693 0.039,-0.04333 0.0077,-0.136499 0.01781,-0.274961 0.0041,-0.412949 -0.002,-0.01557 0.0041,-0.04401 -0.01686,-0.04266 -0.09469,0.0068 -0.151435,-0.02641 -0.142775,-0.132639 0,-0.0068 -0.01916,-0.0095 -0.02735,-0.01422 -0.03365,-0.0237 -0.04956,-0.209555 -0.01496,-0.218154 0.05918,-0.01422 0.04421,-0.05891 0.05288,-0.09147 0.01165,-0.04875 0.08705,-0.129795 0.136506,-0.136363 0.09662,-0.01151 0.151434,-0.07306 0.155768,-0.172113 0.0027,-0.0413 -0.01388,-0.08944 0.01537,-0.12404 0.07976,-0.09377 0.05288,-0.230273 -0.05153,-0.291278 -0.05241,-0.03182 -0.113492,-0.0736 -0.105285,-0.155727 0.0027,-0.03453 0.0068,-0.07021 -0.0027,-0.103796 -0.02735,-0.103863 0.026,-0.197503 0.08603,-0.250044 0.05809,-0.05146 0.106199,-0.131624 0.194618,-0.145978 0.01882,-0.0068 0.01781,-0.02234 0.01672,-0.03453 -0.0014,-0.147061 0.01584,-0.292159 0.0041,-0.439219 -0.0027,-0.02031 0.002,-0.05281 -0.02641,-0.04401 -0.0736,0.02302 -0.06006,-0.08653 -0.126477,-0.07976 -0.0197,0 -0.01347,-0.428792 0.0077,-0.428792 0.06723,0 0.07019,-0.07272 0.130243,-0.09378 0.09469,-0.03385 0.125909,-0.163852 0.136505,-0.249908 0.01686,-0.11578 0.07065,-0.25993 -0.05335,-0.362913 -0.03792,-0.03047 -0.06737,-0.07644 -0.110641,-0.0914 -0.03792,-0.01219 -0.05051,-0.02302 -0.04943,-0.05958 0.0014,-0.02641 -0.0091,-0.05349 -0.002,-0.07678 0.02404,-0.09141 -0.07156,-0.219711 0.08318,-0.268258 0.0014,0 0.0014,-0.0068 0.002,-0.0081 0.02837,-0.05078 0.07977,-0.07793 0.117824,-0.11876 0.03792,-0.0413 0.117703,-0.06161 0.09754,-0.14706 -0.0054,-0.02302 0.0014,-0.05213 0.0014,-0.07692 0.0014,-0.03385 0.0027,-0.05417 0.04509,-0.07549 0.06723,-0.03182 0.02207,-0.111514 0.02986,-0.170691 0.0041,-0.03115 0.01882,-0.07543 -0.02119,-0.100952 -0.01347,-0.0068 -0.03467,0 -0.05051,-0.0068 -0.02207,-0.0068 -0.0629,-0.01625 -0.06195,-0.02031 0.01063,-0.07008 -0.119646,-0.04198 -0.08843,-0.124988 -0.07019,0.0095 -0.05227,-0.09804 -0.123972,-0.0914 -0.02214,0 -0.02302,-0.02573 -0.01882,-0.0413 0.01686,-0.06026 -0.06629,-0.159519 0.06737,-0.179696 0.002,0 0.0082,-0.01083 0.0061,-0.01422 -0.0149,-0.07495 0.03792,-0.125936 0.0817,-0.158707 0.05477,-0.04062 0.117702,-0.0692 0.172512,-0.112394 0.02553,-0.02031 0.04618,-0.02641 0.04618,-0.06229 0,-0.02234 -0.0014,-0.06094 0.0095,-0.065 0.08603,-0.03927 0.04509,-0.112462 0.05051,-0.171638 0.0061,-0.07062 0.002,-0.142796 0.0027,-0.21443 0.0014,-0.06229 -0.07019,-0.140832 -0.131149,-0.143811 -0.105286,-0.0074 -0.159526,-0.065 -0.161916,-0.170488 0,-0.01964 0,-0.03995 -0.002,-0.06094 -0.0027,-0.121942 0.0061,-0.23305 0.129328,-0.306513 0.02404,-0.01422 0.03358,-0.06432 0.08216,-0.05552 0.0014,-0.0589 0.08705,-0.04604 0.08797,-0.107249 0.0027,-0.157555 0.0054,-0.316194 0.0061,-0.473817 0,-0.03589 -0.02316,-0.05213 -0.04807,-0.07793 -0.05193,-0.05146 -0.102888,-0.05891 -0.163852,-0.06568 -0.01686,0 -0.01781,-0.02031 -0.01584,-0.03453 0.01584,-0.145029 -0.07167,-0.298861 0.0629,-0.435359 0.04089,-0.03859 0.0956,-0.08931 0.128299,-0.09892 0.08706,-0.02641 0.0956,-0.07211 0.09424,-0.141306 -0.0014,-0.0501 0.0077,-0.100004 -0.0014,-0.14618 -0.02119,-0.110635 0.06006,-0.242258 -0.06486,-0.33258 -0.0034,0 -0.0034,-0.01083 -0.0027,-0.01625 0.0054,-0.04333 -0.02302,-0.04198 -0.05335,-0.04604 -0.122144,-0.01828 -0.169208,-0.07218 -0.169208,-0.198045 -0.0014,-0.06026 0.0014,-0.121602 0.0034,-0.181794 0.002,-0.065 0.06486,-0.111515 0.09754,-0.121129 0.07019,-0.02167 0.0587,-0.109957 0.125909,-0.11815 -0.01672,-0.05687 0.07156,-0.03182 0.06635,-0.09276 -0.0095,-0.124988 -0.0014,-0.252346 -0.0054,-0.379163 -0.0027,-0.08308 -0.06916,-0.154779 -0.152342,-0.159519 -0.07065,0 -0.101981,-0.06771 -0.118732,-0.10278 -0.03358,-0.06967 -0.0327,-0.164461 -0.0034,-0.233726 0.01198,-0.02573 0.0409,-0.11341 0.121122,-0.100952 0.02072,0 0.01686,-0.02505 0.01781,-0.04063 0.0014,-0.01693 0,-0.03995 0.02316,-0.03859 0.05769,0.0068 0.04956,-0.03792 0.05044,-0.06838 0.01253,-0.157555 0.01388,-0.316194 0.0041,-0.47375 -0.0014,-0.01963 0.0027,-0.0413 -0.02749,-0.04333 -0.05484,0 -0.06006,-0.09229 -0.128299,-0.0736 0.01584,-0.06094 -0.06642,-0.05078 -0.06917,-0.09364 -0.0061,-0.078 -0.02553,-0.164936 0.01056,-0.228852 0.02119,-0.03656 0.04902,-0.115441 0.126823,-0.1063 0.0041,0 0.01496,-0.0176 0.01496,-0.02641 -0.0027,-0.03589 0.03988,-0.0501 0.04421,-0.06094 0.0197,-0.05891 0.106199,-0.07976 0.08888,-0.156676 -0.026,-0.12018 0.04421,-0.24808 -0.05335,-0.367381 -0.03555,-0.04333 -0.08216,-0.116186 -0.116796,-0.118149 -0.108136,-0.0068 -0.124995,-0.06094 -0.120668,-0.148009 0.0034,-0.05687 0.0014,-0.114832 0.0034,-0.171571 0.0014,-0.0176 0.0047,-0.03385 0.0091,-0.05078 0.06973,0.01693 0.05152,-0.108129 0.130235,-0.08172 0.0095,0.0068 0.01063,-0.02302 0.01063,-0.03724 0.002,-0.01964 -0.0014,-0.04536 0.02837,-0.04401 0,0 -0.002,-0.191409 -0.01063,-0.463255 -0.002,-0.07793 -0.0054,-0.155321 -0.0082,-0.247065 -0.0034,-0.102848 -0.0054,-0.206373 -0.0095,-0.309153 0,-0.01557 0.0014,-0.03589 -0.0072,-0.0501 -0.02641,-0.476323 -0.07258,-1.009249 -0.149498,-1.403375 l -0.05674,-0.254784 c -0.0095,-0.0325 -0.02119,-0.04333 -0.03033,-0.0696 h 2.448468 c 0.375337,-0.08944 0.654732,-0.405771 0.654732,-0.799897 -0.0014,-0.463458 -0.377043,-0.839709 -0.850948,-0.839709 z" /><g
     id="g3611"
     transform="matrix(0.1139459,0,0,0.1139459,-185.23854,-135.47173)"
     style="fill:#222222;fill-opacity:1"><linearGradient
       y2="1333.3677"
       x2="1146.1938"
       y1="1567.3887"
       x1="1146.1938"
       gradientUnits="userSpaceOnUse"
       id="SVGID_1_"><stop
         id="stop3614"
         style="stop-color:#353535"
         offset="0" /><stop
         id="stop3616"
         style="stop-color:#595959"
         offset="1" /></linearGradient><path
       inkscape:connector-curvature="0"
       style="fill:#222222;fill-opacity:1"
       id="path3618"
       d="m 1158.829,1202.894 c -0.283,0 -0.477,3.413 -0.755,3.413 -0.662,2.278 -1.514,4.556 -1.704,6.825 -2.923,20.176 -6.133,40.365 -8.31,60.445 -2.636,23.686 -6.707,48.616 -8.027,72.302 -1.131,18.084 -1.89,36.19 -2.451,54.282 -1.797,30.705 -3.218,124.307 -3.598,147.237 0,0.093 0,0.093 0,0.186 v 0.101 c 0.101,0.949 -0.274,5.885 -0.274,6.446 -0.093,2.843 -0.287,5.683 0,8.529 0,0.38 -0.093,0.565 -0.093,0.853 h 25.213 v -360.619 z" /></g><g
     id="g3571"
     transform="matrix(0.12101355,0,0,0.12101355,-195.57289,-145.34756)"
     style="fill:#006636;fill-opacity:1"><g
       id="g3573"
       style="fill:#006636;fill-opacity:1"><path
         d="m 1426.158,1649.102 v -106.876 h 26.736 c 17.764,0 31.236,4.417 40.479,13.263 9.251,8.833 13.854,21.725 13.854,38.682 0,16.275 -4.961,29.521 -14.865,39.687 -9.918,10.157 -23.594,15.245 -41.016,15.245 h -25.188 z m 7.387,-100.093 v 93.368 h 16.738 c 15.856,0 28.047,-4.107 36.526,-12.325 8.491,-8.209 12.761,-20.079 12.761,-35.599 0,-30.301 -15.938,-45.444 -47.765,-45.444 z"
         id="path3575"
         inkscape:connector-curvature="0"
         style="fill:#006636;fill-opacity:1" /><path
         d="m 1529.158,1611.238 c 0,10.479 2.43,18.688 7.26,24.588 4.834,5.885 11.473,8.863 19.939,8.863 8.543,0 16.891,-3.126 25.023,-9.453 v 7.293 c -7.896,5.619 -16.696,8.424 -26.432,8.424 -9.854,0 -17.793,-3.539 -23.843,-10.588 -6.07,-7.057 -9.103,-16.996 -9.103,-29.861 0,-11.153 3.163,-20.526 9.499,-28.162 6.327,-7.609 14.554,-11.436 24.69,-11.436 9.516,0 16.785,3.328 21.855,9.998 5.057,6.652 7.592,15.726 7.592,27.254 v 3.08 z m 49.324,-6.269 c -0.282,-8.791 -2.426,-15.624 -6.336,-20.484 -3.936,-4.88 -9.33,-7.33 -16.232,-7.33 -7.175,0 -13.114,2.404 -17.779,7.209 -4.704,4.796 -7.602,11.676 -8.682,20.605 z"
         id="path3577"
         inkscape:connector-curvature="0"
         style="fill:#006636;fill-opacity:1" /><path
         d="m 1629.605,1649.102 h -6.261 l -29.524,-76.344 h 7.711 l 22.699,60.773 c 1.098,2.907 1.873,5.572 2.312,7.969 h 0.286 c 0.667,-3.164 1.376,-5.703 2.169,-7.678 l 23.491,-61.064 h 7.441 z"
         id="path3579"
         inkscape:connector-curvature="0"
         style="fill:#006636;fill-opacity:1" /><path
         d="m 1675.369,1611.238 c 0,10.479 2.4,18.688 7.27,24.588 4.825,5.885 11.473,8.863 19.914,8.863 8.567,0 16.902,-3.126 25.074,-9.453 v 7.293 c -7.931,5.619 -16.747,8.424 -26.479,8.424 -9.838,0 -17.772,-3.539 -23.852,-10.588 -6.057,-7.057 -9.072,-16.996 -9.072,-29.861 0,-11.153 3.143,-20.526 9.469,-28.162 6.357,-7.609 14.601,-11.436 24.729,-11.436 9.5,0 16.76,3.328 21.822,9.998 5.1,6.652 7.626,15.726 7.626,27.254 v 3.08 z m 49.326,-6.269 c -0.287,-8.791 -2.435,-15.624 -6.328,-20.484 -3.918,-4.88 -9.344,-7.33 -16.27,-7.33 -7.138,0 -13.057,2.404 -17.742,7.209 -4.704,4.796 -7.619,11.676 -8.699,20.605 z"
         id="path3581"
         inkscape:connector-curvature="0"
         style="fill:#006636;fill-opacity:1" /><path
         d="M 1750.777,1649.102 V 1536.11 h 6.88 v 112.992 z"
         id="path3583"
         inkscape:connector-curvature="0"
         style="fill:#006636;fill-opacity:1" /><path
         d="m 1812.728,1650.953 c -11.149,0 -19.94,-3.674 -26.433,-10.984 -6.492,-7.344 -9.71,-16.86 -9.71,-28.584 0,-12.68 3.392,-22.576 10.153,-29.734 6.796,-7.162 15.718,-10.744 26.791,-10.744 10.896,0 19.48,3.543 25.808,10.651 6.29,7.112 9.462,16.944 9.462,29.536 0,11.879 -3.227,21.48 -9.647,28.828 -6.455,7.357 -15.263,11.031 -26.424,11.031 z m 0.527,-73.799 c -8.993,0 -16.187,3.07 -21.526,9.119 -5.332,6.058 -8.006,14.486 -8.006,25.26 0,9.98 2.619,18.029 7.85,24.053 5.201,6.078 12.348,9.104 21.371,9.104 9.183,0 16.266,-2.986 21.238,-8.926 4.97,-5.986 7.441,-14.25 7.441,-24.838 0,-10.875 -2.463,-19.219 -7.402,-25.023 -4.928,-5.831 -11.939,-8.749 -20.966,-8.749 z"
         id="path3585"
         inkscape:connector-curvature="0"
         style="fill:#006636;fill-opacity:1" /><path
         d="m 1874.872,1635.531 h -0.286 v 48.642 h -6.859 v -111.415 h 6.859 v 15.748 h 0.286 c 2.759,-5.628 6.652,-9.936 11.761,-13.023 5.092,-3.053 10.682,-4.576 16.785,-4.576 9.702,0 17.273,3.337 22.707,10.027 5.434,6.694 8.154,15.776 8.154,27.225 0,12.781 -3.117,23.092 -9.352,30.988 -6.235,7.88 -14.465,11.807 -24.699,11.807 -11.439,-10e-4 -19.868,-5.147 -25.356,-15.423 z m -0.286,-28.406 v 9.631 c 0,7.635 2.4,14.203 7.221,19.707 4.826,5.477 11.188,8.227 19,8.227 7.812,0 14.14,-3.35 19,-10.015 4.88,-6.69 7.331,-15.478 7.331,-26.339 0,-9.559 -2.266,-17.118 -6.741,-22.746 -4.463,-5.618 -10.395,-8.436 -17.865,-8.436 -8.892,0 -15.78,2.994 -20.648,8.951 -4.873,5.977 -7.298,12.997 -7.298,21.02 z"
         id="path3587"
         inkscape:connector-curvature="0"
         style="fill:#006636;fill-opacity:1" /><path
         d="m 2048.917,1649.102 v -45.912 c 0,-9.576 -1.519,-16.316 -4.497,-20.197 -3.016,-3.877 -7.778,-5.838 -14.296,-5.838 -6.015,0 -11.216,2.615 -15.569,7.752 -4.371,5.172 -6.547,11.678 -6.547,19.48 v 44.715 h -6.881 v -46.439 c 0,-16.987 -6.449,-25.508 -19.37,-25.508 -6.214,0 -11.397,2.615 -15.503,7.791 -4.121,5.209 -6.196,11.934 -6.196,20.168 v 43.988 h -6.838 v -76.344 h 6.838 v 12.693 h 0.304 c 5.319,-9.682 13.115,-14.545 23.332,-14.545 5.563,0 10.322,1.607 14.287,4.822 3.919,3.176 6.614,7.424 7.998,12.612 2.396,-5.509 5.801,-9.771 10.255,-12.858 4.438,-3.053 9.259,-4.576 14.481,-4.576 16.709,0 25.057,10.33 25.057,31.01 v 47.186 z"
         id="path3589"
         inkscape:connector-curvature="0"
         style="fill:#006636;fill-opacity:1" /><path
         d="m 2080.268,1611.238 c 0,10.479 2.442,18.688 7.269,24.588 4.843,5.885 11.491,8.863 19.932,8.863 8.546,0 16.886,-3.126 25.048,-9.453 v 7.293 c -7.904,5.619 -16.713,8.424 -26.461,8.424 -9.833,0 -17.789,-3.539 -23.821,-10.588 -6.07,-7.057 -9.111,-16.996 -9.111,-29.861 0,-11.153 3.181,-20.526 9.479,-28.162 6.356,-7.609 14.591,-11.436 24.728,-11.436 9.5,0 16.777,3.328 21.813,9.998 5.091,6.652 7.636,15.726 7.636,27.254 v 3.08 z m 49.341,-6.269 c -0.303,-8.791 -2.417,-15.624 -6.336,-20.484 -3.927,-4.88 -9.344,-7.33 -16.24,-7.33 -7.176,0 -13.09,2.404 -17.811,7.209 -4.656,4.796 -7.555,11.676 -8.63,20.605 z"
         id="path3591"
         inkscape:connector-curvature="0"
         style="fill:#006636;fill-opacity:1" /><path
         d="m 2207.564,1649.102 v -44.428 c 0,-18.328 -6.605,-27.52 -19.83,-27.52 -7.361,0 -13.385,2.732 -18.105,8.086 -4.703,5.404 -7.082,12.09 -7.082,20.033 v 43.828 h -6.834 v -76.344 h 6.834 v 13.896 h 0.303 c 5.59,-10.499 14.259,-15.747 26.082,-15.747 8.265,0 14.575,2.759 18.945,8.247 4.379,5.483 6.539,13.317 6.539,23.509 v 46.439 h -6.852 z"
         id="path3593"
         inkscape:connector-curvature="0"
         style="fill:#006636;fill-opacity:1" /><path
         d="m 2267.559,1648.03 c -3.569,1.688 -6.918,2.556 -10.053,2.556 -11.279,0 -16.916,-6.773 -16.916,-20.281 v -51.27 h -13.722 v -6.277 h 13.722 v -19.809 c 1.072,-0.405 2.232,-0.785 3.413,-1.182 1.198,-0.346 2.35,-0.734 3.421,-1.139 v 22.129 h 20.135 v 6.277 h -20.135 v 50.375 c 0,5.265 0.856,9.074 2.51,11.453 1.671,2.332 4.48,3.522 8.458,3.522 2.822,0 5.885,-0.903 9.167,-2.759 z"
         id="path3595"
         inkscape:connector-curvature="0"
         style="fill:#006636;fill-opacity:1" /></g></g><g
     id="g3620"
     transform="matrix(0.12101355,0,0,0.12101355,-195.57289,-145.34756)"
     style="fill:#222222;fill-opacity:1"><g
       id="g3622"
       style="fill:#222222;fill-opacity:1"><path
         style="fill:#222222;fill-opacity:1"
         inkscape:connector-curvature="0"
         id="path3624"
         d="m 1501.629,1496.516 c -9.533,18.604 -26.854,25.749 -41.256,25.749 -22.509,0 -45.161,-13.103 -45.161,-39.159 v -39.514 c 0,-25.888 22.652,-39.171 45.659,-39.171 14.068,0 31.056,5.999 40.26,26.39 l -23.609,9.533 c -7.775,-14.229 -33.334,-10.992 -33.334,3.248 v 39.514 c 0,13.739 25.889,17.646 32.207,1.75 z" /><path
         style="fill:#222222;fill-opacity:1"
         inkscape:connector-curvature="0"
         id="path3626"
         d="m 1509.449,1443.762 c 0,-26.391 23.641,-39.341 47.406,-39.341 23.816,0 47.592,13.119 47.592,39.341 v 39.18 c 0,26.221 -23.611,39.323 -47.424,39.323 -23.808,0 -47.574,-13.103 -47.574,-39.323 z m 28.972,39.179 c 0,8.411 9.369,12.447 18.603,12.447 9.238,0 18.443,-4.205 18.443,-12.447 v -39.18 c 0,-8.91 -9.533,-12.951 -18.94,-12.951 -9.04,0 -18.105,4.539 -18.105,12.951 v 39.18 z" /><path
         style="fill:#222222;fill-opacity:1"
         inkscape:connector-curvature="0"
         id="path3628"
         d="m 1619.869,1406.049 h 28.976 l 24.108,55.99 24.268,-55.99 h 28.967 v 114.596 h -29.105 l 0.139,-33.013 1.789,-23.142 -0.958,-0.16 -15.063,39.332 h -19.902 l -15.401,-39.332 -0.793,0.16 1.953,23.142 v 33.013 h -28.976 v -114.596 z" /><path
         style="fill:#222222;fill-opacity:1"
         inkscape:connector-curvature="0"
         id="path3630"
         d="m 1744.378,1406.049 h 28.968 l 24.099,55.99 24.276,-55.99 h 29.006 v 114.596 h -29.137 l 0.131,-33.013 1.789,-23.142 -0.957,-0.16 -15.072,39.332 h -19.902 l -15.367,-39.332 -0.818,0.16 1.953,23.142 v 33.013 h -28.968 v -114.596 z" /><path
         style="fill:#222222;fill-opacity:1"
         inkscape:connector-curvature="0"
         id="path3632"
         d="m 1966.152,1520.645 h -31.062 l -7.441,-23.007 h -30.596 l -7.121,23.007 h -31.098 l 40.012,-114.596 h 26.377 z m -45.461,-48.702 -7.938,-33.553 h -0.806 l -8.411,33.553 z" /><path
         style="fill:#222222;fill-opacity:1"
         inkscape:connector-curvature="0"
         id="path3634"
         d="m 1973.81,1406.049 h 27.512 l 27.677,48.869 9.702,22.986 0.831,-0.131 c -0.169,0 -3.084,-19.771 -3.248,-19.771 v -51.953 h 28.811 v 114.596 h -29.309 l -25.896,-45.157 -10.027,-22.985 -0.801,0.168 3.717,22.189 v 45.785 h -28.968 v -114.596 z" /><path
         style="fill:#222222;fill-opacity:1"
         inkscape:connector-curvature="0"
         id="path3636"
         d="m 2126.15,1406.049 c 22.978,0 44.504,11.655 44.504,38.336 v 38.557 c 0,26.348 -21.526,37.863 -44.504,37.703 h -42.913 v -114.596 z m 0.962,87.412 c 9.896,0 14.405,-5.027 14.405,-12.477 v -35.768 c 0,-7.454 -4.678,-12.153 -14.405,-12.153 h -14.739 v 60.397 h 14.739 z" /><path
         style="fill:#222222;fill-opacity:1"
         inkscape:connector-curvature="0"
         id="path3638"
         d="m 2183.499,1443.762 c 0,-26.391 23.61,-39.341 47.414,-39.341 23.771,0 47.583,13.119 47.583,39.341 v 39.18 c 0,26.221 -23.648,39.323 -47.422,39.323 -23.797,0 -47.575,-13.103 -47.575,-39.323 z m 28.942,39.179 c 0,8.411 9.398,12.447 18.633,12.447 9.213,0 18.441,-4.205 18.441,-12.447 v -39.18 c 0,-8.91 -9.562,-12.951 -18.932,-12.951 -9.078,0 -18.143,4.539 -18.143,12.951 v 39.18 z" /></g></g></svg>