<?xml version="1.0" encoding="UTF-8" standalone="no"?>
<!-- Generator: Adobe Illustrator 16.0.0, SVG Export Plug-In . SVG Version: 6.00 Build 0)  -->

<svg
   xmlns:dc="http://purl.org/dc/elements/1.1/"
   xmlns:cc="http://creativecommons.org/ns#"
   xmlns:rdf="http://www.w3.org/1999/02/22-rdf-syntax-ns#"
   xmlns:svg="http://www.w3.org/2000/svg"
   xmlns="http://www.w3.org/2000/svg"
   xmlns:sodipodi="http://sodipodi.sourceforge.net/DTD/sodipodi-0.dtd"
   xmlns:inkscape="http://www.inkscape.org/namespaces/inkscape"
   version="1.1"
   id="Layer_1"
   x="0px"
   y="0px"
   width="205.24667"
   height="89"
   viewBox="0 0 0.0085250001 70.893146"
   enable-background="new 0 0 3000 3000"
   xml:space="preserve"
   inkscape:version="0.92.1 r15371"
   sodipodi:docname="logo.svg"
   inkscape:export-filename="/home/ben/docs/org/commandodev.com/logo/bus-card-front.png"
   inkscape:export-xdpi="300"
   inkscape:export-ydpi="300"><metadata
     id="metadata3644"><rdf:RDF><cc:Work
         rdf:about=""><dc:format>image/svg+xml</dc:format><dc:type
           rdf:resource="http://purl.org/dc/dcmitype/StillImage" /><dc:title /></cc:Work></rdf:RDF></metadata><defs
     id="defs3642" /><sodipodi:namedview
     pagecolor="#ffffff"
     bordercolor="#666666"
     borderopacity="1"
     objecttolerance="10"
     gridtolerance="10"
     guidetolerance="10"
     inkscape:pageopacity="0"
     inkscape:pageshadow="2"
     inkscape:window-width="1920"
     inkscape:window-height="1080"
     id="namedview3640"
     showgrid="false"
     fit-margin-top="2"
     fit-margin-left="2"
     fit-margin-right="2"
     fit-margin-bottom="2"
     inkscape:zoom="2.8284271"
     inkscape:cx="125.26238"
     inkscape:cy="36.658534"
     inkscape:window-x="0"
     inkscape:window-y="0"
     inkscape:window-maximized="0"
     inkscape:current-layer="Layer_1"
     scale-x="1e-05"
     inkscape:pagecheckerboard="true"
     showguides="true"
     inkscape:guide-bbox="true"><sodipodi:guide
       position="0.0024626684,31.388535"
       orientation="0,1"
       id="guide6685"
       inkscape:locked="false" /><sodipodi:guide
       position="0.0023569388,17.038236"
       orientation="0,1"
       id="guide6687"
       inkscape:locked="false" /><sodipodi:guide
       position="0.002584556,45.763856"
       orientation="0,1"
       id="guide6689"
       inkscape:locked="false" /><sodipodi:guide
       position="0.0026432959,33.853469"
       orientation="0,1"
       id="guide6710"
       inkscape:locked="false"
       inkscape:label=""
       inkscape:color="rgb(0,0,255)" /></sodipodi:namedview><path
     style="fill:#ffffff;fill-opacity:1;stroke:none;stroke-width:0.79655218;stroke-opacity:1"
     d="m -53.543007,21.432978 2.541166,0.211218 0.316827,15.444999 h -2.857993 z"
     id="rect4773"
     inkscape:connector-curvature="0"
     sodipodi:nodetypes="ccccc" /><g
     id="g3601"
     transform="matrix(0.1139459,0,0,0.1139459,-185.51714,-135.3308)"
     style="fill:#686868;fill-opacity:1;stroke:none;stroke-opacity:1"><g
       id="g3603"
       style="fill:#686868;fill-opacity:1;stroke:none;stroke-opacity:1"><g
         id="g3605"
         style="fill:#686868;fill-opacity:1;stroke:none;stroke-opacity:1"><path
           id="path3607"
           style="fill:#686868;fill-opacity:1;stroke:none;stroke-opacity:1"
           d="m 1186.4545,1551.7802 c 0,-0.628 -0.435,-5.664 -0.308,-6.521 0,0.034 0,0.034 0,-0.168 -0.397,-22.843 -1.789,-116.19 -3.569,-146.781 -0.599,-18.089 -1.363,-36.126 -2.413,-54.164 -1.405,-23.614 -5.441,-48.452 -8.082,-71.999 -2.219,-20.087 -5.442,-40.154 -8.243,-60.289 -0.279,-2.286 -1.126,-4.539 -1.734,-6.817 -0.257,0 -0.527,-3.357 -0.793,-3.383 -0.257,0.025 -0.527,3.383 -0.797,3.383 -0.625,2.278 -1.456,4.531 -1.713,6.817 -2.852,20.134 -6.07,40.201 -8.285,60.289 -2.645,23.547 -6.657,48.385 -8.002,71.999 -1.101,18.038 -1.865,36.075 -2.455,54.164 -1.789,30.591 -3.21,123.938 -3.577,146.781 0,0.202 0,0.202 0,0.168 0.093,0.857 -0.333,5.894 -0.333,6.521 -0.063,2.811 -0.295,5.688 0,8.514 0.101,0.793 0.038,1.455 -0.093,1.982 h 25.255 25.268 c -0.165,-0.527 -0.202,-1.189 -0.126,-1.982 0.295,-2.827 0.089,-5.704 0,-8.514 z m -3.155,-38.606 -21.986,-20.101 v -111.946 l 18.316,14.531 c 0.856,2.752 3.67,117.516 3.67,117.516 z"
           inkscape:connector-curvature="0" /></g></g></g><polygon
     points="1218.548,1677.09 1291.023,1677.09 1387.244,1531.996 1291.023,1386.898 1218.548,1386.898 1316.385,1531.996 "
     id="polygon3597"
     style="fill:#087b38;fill-opacity:1"
     transform="matrix(0.11665994,0,0,0.11665994,-188.08172,-139.21795)" /><polygon
     points="1093.909,1677.09 1021.438,1677.09 925.204,1531.996 1021.438,1386.898 1093.909,1386.898 996.073,1531.996 "
     id="polygon3599"
     style="fill:#087b38;fill-opacity:1"
     transform="matrix(0.11665994,0,0,0.11665994,-188.08172,-139.21795)" /><path
     style="fill:#222222;fill-opacity:1;stroke-width:0.67707562"
     inkscape:connector-curvature="0"
     id="path3609"
     d="m -48.503458,42.551424 h -4.691268 -2.87292 -1.819254 c -0.462396,0 -0.849812,0.376318 -0.849812,0.839641 0,0.394126 0.286458,0.71032 0.656554,0.799897 h 2.531653 c -0.0095,0.02641 -0.02119,0.03656 -0.03033,0.0696 l -0.05674,0.254783 c -0.07691,0.394126 -0.123058,0.927188 -0.149491,1.403375 -0.0082,0.01422 -0.0072,0.03453 -0.0072,0.0501 -0.0041,0.102781 -0.0068,0.206238 -0.0095,0.309153 -0.0027,0.09168 -0.0061,0.169066 -0.0087,0.246997 -0.0081,0.271982 -0.01002,0.463323 -0.01002,0.463323 0.02932,0 0.026,0.02437 0.02837,0.04401 0,0.01422 0.0014,0.04062 0.01056,0.03724 0.07885,-0.02641 0.06053,0.09845 0.130242,0.08166 0.0041,0.01693 0.0082,0.0325 0.0091,0.05078 0.0027,0.05687 0,0.114832 0.0034,0.171571 0.0041,0.08707 -0.01253,0.141306 -0.120669,0.148009 -0.03507,0 -0.08124,0.07455 -0.116795,0.118217 -0.09753,0.119301 -0.02749,0.247133 -0.05389,0.367314 -0.01672,0.07692 0.06974,0.09757 0.08945,0.156675 0.0041,0.01083 0.04618,0.02505 0.04421,0.06094 0,0.0088 0.01063,0.02708 0.0149,0.02641 0.07737,-0.0088 0.105746,0.06967 0.126938,0.106369 0.03555,0.06365 0.01672,0.150852 0.01063,0.228784 -0.0027,0.04333 -0.08512,0.0325 -0.06916,0.09364 -0.06826,-0.01896 -0.07361,0.07069 -0.128306,0.0736 -0.03033,0 -0.02641,0.02437 -0.02749,0.04333 -0.0095,0.157556 -0.0087,0.316194 0.0041,0.47375 0.0014,0.03047 -0.0072,0.07455 0.05051,0.06838 0.02316,0 0.02207,0.02234 0.02316,0.03927 0.0014,0.01557 -0.0034,0.04401 0.01781,0.04062 0.07976,-0.01219 0.109158,0.07502 0.120669,0.100952 0.02986,0.0692 0.03074,0.163988 -0.0027,0.233727 -0.01672,0.03589 -0.04855,0.09946 -0.118732,0.10278 -0.08306,0.0068 -0.149498,0.07644 -0.152342,0.159519 -0.0041,0.126816 0.0041,0.254242 -0.0054,0.37923 -0.0054,0.06094 0.08307,0.03589 0.06629,0.09276 0.06676,0.0081 0.05525,0.09662 0.125909,0.11815 0.0327,0.0095 0.09572,0.05552 0.09754,0.121129 0.0027,0.06026 0.0041,0.121129 0.0034,0.181727 0,0.125936 -0.0476,0.179831 -0.169208,0.198045 -0.03033,0.0068 -0.05918,0 -0.05335,0.04604 0.0014,0.0068 0.0014,0.01354 -0.0027,0.01625 -0.124995,0.09039 -0.04421,0.221945 -0.06486,0.332647 -0.0087,0.04604 0,0.09614 -0.0014,0.146181 -0.0014,0.06913 0.0072,0.115306 0.09469,0.141305 0.0327,0.0095 0.08751,0.06026 0.128299,0.09885 0.134569,0.136499 0.04719,0.29033 0.06304,0.435428 0.002,0.01422 0.0014,0.03115 -0.01584,0.03453 -0.06107,0.0068 -0.112463,0.01422 -0.163853,0.06568 -0.02505,0.02505 -0.04807,0.04198 -0.04807,0.07793 0.0014,0.157556 0.0041,0.316195 0.0061,0.47375 0.0014,0.06094 0.08705,0.04875 0.08797,0.107249 0.04855,-0.0088 0.05762,0.0413 0.08216,0.05552 0.123058,0.0736 0.132178,0.184571 0.129328,0.306512 -0.002,0.02099 -0.002,0.0413 -0.002,0.06094 -0.0027,0.10515 -0.05721,0.162904 -0.162031,0.17042 -0.06107,0 -0.132633,0.08186 -0.131157,0.143811 0.0014,0.0717 -0.0034,0.143811 0.0027,0.21443 0.0054,0.0589 -0.03555,0.132097 0.05051,0.171638 0.01063,0.0068 0.0091,0.04266 0.0091,0.065 0,0.03589 0.02119,0.04198 0.04658,0.06229 0.05437,0.04333 0.117703,0.07197 0.172058,0.112326 0.04421,0.0325 0.09663,0.08362 0.08216,0.158707 -0.002,0.0068 0.0041,0.01354 0.0061,0.01422 0.133662,0.02031 0.05051,0.119233 0.06737,0.179695 0.0041,0.01625 0.0034,0.04333 -0.01882,0.0413 -0.07155,-0.0068 -0.0539,0.100952 -0.123973,0.09141 0.03121,0.08274 -0.09902,0.05484 -0.08842,0.124988 0.0014,0.0068 -0.03988,0.01422 -0.06202,0.02031 -0.01584,0.0068 -0.03704,0 -0.05044,0.0068 -0.03988,0.02573 -0.02505,0.06974 -0.02119,0.100952 0.0077,0.05958 -0.03751,0.138869 0.02972,0.170691 0.04272,0.02167 0.04374,0.04198 0.04509,0.07543 0,0.02505 0.0061,0.05417 0.0014,0.07692 -0.02018,0.08511 0.05958,0.105827 0.09754,0.147129 0.03792,0.04062 0.08945,0.06825 0.117818,0.118691 0.0014,0 0.0014,0.0068 0.002,0.0081 0.154739,0.04875 0.05911,0.17692 0.08318,0.26819 0.0072,0.02302 -0.0034,0.0501 -0.0027,0.07678 0.0014,0.03656 -0.01151,0.0474 -0.04902,0.05958 -0.04327,0.01489 -0.07258,0.06094 -0.110526,0.09134 -0.123972,0.102916 -0.07019,0.2472 -0.05335,0.362913 0.01063,0.08619 0.04184,0.216325 0.136505,0.249908 0.06006,0.02099 0.06303,0.09378 0.130242,0.09378 0.02119,0 0.02749,0.429673 0.0077,0.428792 -0.06642,-0.0068 -0.05288,0.10278 -0.12637,0.07976 -0.02837,-0.0088 -0.02404,0.02437 -0.02641,0.04401 -0.01151,0.147128 0.0054,0.292158 0.0041,0.439286 -0.0014,0.01219 -0.002,0.03115 0.01686,0.03453 0.08843,0.01422 0.136512,0.09411 0.194165,0.145978 0.06006,0.05281 0.113945,0.14618 0.08648,0.249976 -0.0095,0.03385 -0.0054,0.06913 -0.0034,0.103796 0.0087,0.08213 -0.05234,0.123972 -0.104716,0.155795 -0.104378,0.06094 -0.131272,0.1973 -0.05139,0.29121 0.02925,0.03453 0.01239,0.08274 0.01537,0.124108 0.0041,0.09899 0.05911,0.160399 0.155762,0.172045 0.04956,0.0068 0.125001,0.08748 0.136505,0.136363 0.0087,0.0325 -0.0061,0.07705 0.05288,0.09154 0.03467,0.0088 0.01882,0.194591 -0.01496,0.218086 -0.0082,0.0068 -0.02735,0.01016 -0.02735,0.01422 0.0087,0.106166 -0.04807,0.136499 -0.142768,0.132639 -0.02119,0 -0.01489,0.02708 -0.01672,0.04266 -0.01402,0.137988 -0.0034,0.276382 0.0041,0.412949 0.0014,0.02641 0.0068,0.04536 0.03886,0.04333 0.03358,0 0.0476,0.01422 0.0476,0.04537 0,0.0176 0.01239,0.02437 0.02925,0.02505 0.0923,0.0074 0.154285,0.04943 0.174455,0.146181 0,0 0.002,0.0068 0.0041,0.0068 0.134115,0.02437 0.06304,0.131285 0.0784,0.20055 0.0077,0.02708 0.0027,0.05891 -0.0014,0.08606 -0.0061,0.03927 -0.0082,0.06703 -0.06053,0.09141 -0.04753,0.02099 -0.08318,0.0738 -0.147102,0.07495 -0.0041,0 -0.01063,0.02505 -0.01063,0.03724 -0.0041,0.109618 -0.01584,0.220117 0.01537,0.324996 0.02302,0.07258 0.05092,0.151394 0.153831,0.150378 0.05762,0 0.07121,0.05891 0.112463,0.08612 0.09036,0.06094 0.08512,0.169134 0.07361,0.271101 -0.0041,0.03182 0.0091,0.0717 -0.04658,0.07353 -0.02316,0 -0.01347,0.02776 -0.01781,0.04198 -0.01252,0.04469 0.02018,0.10691 -0.05958,0.121128 -0.02119,0 -0.01198,0.197503 0.01002,0.202852 0.05193,0.01083 0.04137,0.04672 0.04225,0.07874 0.002,0.06094 0.0095,0.122145 0.0041,0.180712 0,0 0.002,0.0068 0.002,0.0088 l 0.02119,0.578696 c -0.0014,0.04943 0.002,0.08646 0.002,0.08646 h -0.002 c 0.06588,0.564207 -0.08124,1.997576 -0.08124,1.997576 l -0.002,-0.0068 c -0.03649,0.443688 -0.120669,0.95312 -0.288854,1.526196 l -0.03704,0.295138 c -0.0091,0.295069 0.07498,0.553644 0.258663,0.79448 0.0095,0.0176 0.02735,0.04536 0.03704,0.128441 0.138441,0.812356 0.387869,1.080072 1.180935,1.245887 0.140838,0.03182 0.282584,0.04198 0.423423,0.0474 0.02553,0 0.05051,0.0081 0.076,0.0081 0.0061,0 0.01165,0 0.01781,0 0.0061,0 0.01151,0 0.01781,0 0.02553,0 0.05051,-0.0074 0.07543,-0.0081 0.141292,-0.0068 0.283153,-0.01625 0.423991,-0.0474 0.793066,-0.165815 1.042148,-0.433531 1.180935,-1.245887 0.0095,-0.08314 0.02749,-0.110634 0.03704,-0.128441 0.183684,-0.240768 0.267777,-0.499411 0.258657,-0.79448 l -0.03704,-0.295138 c -0.168301,-0.572941 -0.252279,-1.082508 -0.288854,-1.526196 l -0.0027,0.0068 c 0,0 -0.147108,-1.433369 -0.08079,-1.997576 l 0.0014,-0.03589 c 0.0014,-0.01151 0.0014,-0.0149 0.0014,-0.0325 l 0.02119,-0.604764 c -0.0054,-0.05823 0.0027,-0.119639 0.0041,-0.180711 0.0014,-0.03182 -0.0095,-0.06825 0.04184,-0.07874 0.02207,-0.0068 0.03176,-0.199941 0.01056,-0.202784 -0.07988,-0.01422 -0.04719,-0.07692 -0.06006,-0.121129 -0.0041,-0.01422 0.0054,-0.04063 -0.01781,-0.04198 -0.05525,0 -0.04184,-0.04198 -0.04611,-0.07346 -0.01165,-0.101967 -0.01686,-0.210164 0.07349,-0.271101 0.04137,-0.02708 0.05484,-0.08843 0.112469,-0.08612 0.102888,0 0.130235,-0.07793 0.153371,-0.150446 0.03169,-0.104811 0.02018,-0.21531 0.01584,-0.324929 0,-0.01219 -0.0061,-0.03724 -0.01056,-0.03724 -0.06392,0 -0.09993,-0.05417 -0.147108,-0.07502 -0.05227,-0.0237 -0.05478,-0.05213 -0.06053,-0.09134 -0.0034,-0.02708 -0.0087,-0.05891 -0.0014,-0.08606 0.01584,-0.06913 -0.05572,-0.176513 0.07885,-0.200549 0.0027,0 0.0041,-0.0068 0.0041,-0.0068 0.02018,-0.09662 0.0817,-0.138462 0.174448,-0.146181 0.01686,0 0.02925,-0.0074 0.02925,-0.02505 0,-0.03047 0.01347,-0.04739 0.04719,-0.04536 0.0327,0 0.03792,-0.01693 0.039,-0.04333 0.0077,-0.136499 0.01781,-0.274961 0.0041,-0.412949 -0.002,-0.01557 0.0041,-0.04401 -0.01686,-0.04266 -0.09469,0.0068 -0.151435,-0.02641 -0.142775,-0.132639 0,-0.0068 -0.01916,-0.0095 -0.02735,-0.01422 -0.03365,-0.0237 -0.04956,-0.209555 -0.01496,-0.218154 0.05918,-0.01422 0.04421,-0.05891 0.05288,-0.09147 0.01165,-0.04875 0.08705,-0.129795 0.136506,-0.136363 0.09662,-0.01151 0.151434,-0.07306 0.155768,-0.172113 0.0027,-0.0413 -0.01388,-0.08944 0.01537,-0.12404 0.07976,-0.09377 0.05288,-0.230273 -0.05153,-0.291278 -0.05241,-0.03182 -0.113492,-0.0736 -0.105285,-0.155727 0.0027,-0.03453 0.0068,-0.07021 -0.0027,-0.103796 -0.02735,-0.103863 0.026,-0.197503 0.08603,-0.250044 0.05809,-0.05146 0.106199,-0.131624 0.194618,-0.145978 0.01882,-0.0068 0.01781,-0.02234 0.01672,-0.03453 -0.0014,-0.147061 0.01584,-0.292159 0.0041,-0.439219 -0.0027,-0.02031 0.002,-0.05281 -0.02641,-0.04401 -0.0736,0.02302 -0.06006,-0.08653 -0.126477,-0.07976 -0.0197,0 -0.01347,-0.428792 0.0077,-0.428792 0.06723,0 0.07019,-0.07272 0.130243,-0.09378 0.09469,-0.03385 0.125909,-0.163852 0.136505,-0.249908 0.01686,-0.11578 0.07065,-0.25993 -0.05335,-0.362913 -0.03792,-0.03047 -0.06737,-0.07644 -0.110641,-0.0914 -0.03792,-0.01219 -0.05051,-0.02302 -0.04943,-0.05958 0.0014,-0.02641 -0.0091,-0.05349 -0.002,-0.07678 0.02404,-0.09141 -0.07156,-0.219711 0.08318,-0.268258 0.0014,0 0.0014,-0.0068 0.002,-0.0081 0.02837,-0.05078 0.07977,-0.07793 0.117824,-0.11876 0.03792,-0.0413 0.117703,-0.06161 0.09754,-0.14706 -0.0054,-0.02302 0.0014,-0.05213 0.0014,-0.07692 0.0014,-0.03385 0.0027,-0.05417 0.04509,-0.07549 0.06723,-0.03182 0.02207,-0.111514 0.02986,-0.170691 0.0041,-0.03115 0.01882,-0.07543 -0.02119,-0.100952 -0.01347,-0.0068 -0.03467,0 -0.05051,-0.0068 -0.02207,-0.0068 -0.0629,-0.01625 -0.06195,-0.02031 0.01063,-0.07008 -0.119646,-0.04198 -0.08843,-0.124988 -0.07019,0.0095 -0.05227,-0.09804 -0.123972,-0.0914 -0.02214,0 -0.02302,-0.02573 -0.01882,-0.0413 0.01686,-0.06026 -0.06629,-0.159519 0.06737,-0.179696 0.002,0 0.0082,-0.01083 0.0061,-0.01422 -0.0149,-0.07495 0.03792,-0.125936 0.0817,-0.158707 0.05477,-0.04062 0.117702,-0.0692 0.172512,-0.112394 0.02553,-0.02031 0.04618,-0.02641 0.04618,-0.06229 0,-0.02234 -0.0014,-0.06094 0.0095,-0.065 0.08603,-0.03927 0.04509,-0.112462 0.05051,-0.171638 0.0061,-0.07062 0.002,-0.142796 0.0027,-0.21443 0.0014,-0.06229 -0.07019,-0.140832 -0.131149,-0.143811 -0.105286,-0.0074 -0.159526,-0.065 -0.161916,-0.170488 0,-0.01964 0,-0.03995 -0.002,-0.06094 -0.0027,-0.121942 0.0061,-0.23305 0.129328,-0.306513 0.02404,-0.01422 0.03358,-0.06432 0.08216,-0.05552 0.0014,-0.0589 0.08705,-0.04604 0.08797,-0.107249 0.0027,-0.157555 0.0054,-0.316194 0.0061,-0.473817 0,-0.03589 -0.02316,-0.05213 -0.04807,-0.07793 -0.05193,-0.05146 -0.102888,-0.05891 -0.163852,-0.06568 -0.01686,0 -0.01781,-0.02031 -0.01584,-0.03453 0.01584,-0.145029 -0.07167,-0.298861 0.0629,-0.435359 0.04089,-0.03859 0.0956,-0.08931 0.128299,-0.09892 0.08706,-0.02641 0.0956,-0.07211 0.09424,-0.141306 -0.0014,-0.0501 0.0077,-0.100004 -0.0014,-0.14618 -0.02119,-0.110635 0.06006,-0.242258 -0.06486,-0.33258 -0.0034,0 -0.0034,-0.01083 -0.0027,-0.01625 0.0054,-0.04333 -0.02302,-0.04198 -0.05335,-0.04604 -0.122144,-0.01828 -0.169208,-0.07218 -0.169208,-0.198045 -0.0014,-0.06026 0.0014,-0.121602 0.0034,-0.181794 0.002,-0.065 0.06486,-0.111515 0.09754,-0.121129 0.07019,-0.02167 0.0587,-0.109957 0.125909,-0.11815 -0.01672,-0.05687 0.07156,-0.03182 0.06635,-0.09276 -0.0095,-0.124988 -0.0014,-0.252346 -0.0054,-0.379163 -0.0027,-0.08308 -0.06916,-0.154779 -0.152342,-0.159519 -0.07065,0 -0.101981,-0.06771 -0.118732,-0.10278 -0.03358,-0.06967 -0.0327,-0.164461 -0.0034,-0.233726 0.01198,-0.02573 0.0409,-0.11341 0.121122,-0.100952 0.02072,0 0.01686,-0.02505 0.01781,-0.04063 0.0014,-0.01693 0,-0.03995 0.02316,-0.03859 0.05769,0.0068 0.04956,-0.03792 0.05044,-0.06838 0.01253,-0.157555 0.01388,-0.316194 0.0041,-0.47375 -0.0014,-0.01963 0.0027,-0.0413 -0.02749,-0.04333 -0.05484,0 -0.06006,-0.09229 -0.128299,-0.0736 0.01584,-0.06094 -0.06642,-0.05078 -0.06917,-0.09364 -0.0061,-0.078 -0.02553,-0.164936 0.01056,-0.228852 0.02119,-0.03656 0.04902,-0.115441 0.126823,-0.1063 0.0041,0 0.01496,-0.0176 0.01496,-0.02641 -0.0027,-0.03589 0.03988,-0.0501 0.04421,-0.06094 0.0197,-0.05891 0.106199,-0.07976 0.08888,-0.156676 -0.026,-0.12018 0.04421,-0.24808 -0.05335,-0.367381 -0.03555,-0.04333 -0.08216,-0.116186 -0.116796,-0.118149 -0.108136,-0.0068 -0.124995,-0.06094 -0.120668,-0.148009 0.0034,-0.05687 0.0014,-0.114832 0.0034,-0.171571 0.0014,-0.0176 0.0047,-0.03385 0.0091,-0.05078 0.06973,0.01693 0.05152,-0.108129 0.130235,-0.08172 0.0095,0.0068 0.01063,-0.02302 0.01063,-0.03724 0.002,-0.01964 -0.0014,-0.04536 0.02837,-0.04401 0,0 -0.002,-0.191409 -0.01063,-0.463255 -0.002,-0.07793 -0.0054,-0.155321 -0.0082,-0.247065 -0.0034,-0.102848 -0.0054,-0.206373 -0.0095,-0.309153 0,-0.01557 0.0014,-0.03589 -0.0072,-0.0501 -0.02641,-0.476323 -0.07258,-1.009249 -0.149498,-1.403375 l -0.05674,-0.254784 c -0.0095,-0.0325 -0.02119,-0.04333 -0.03033,-0.0696 h 2.448468 c 0.375337,-0.08944 0.654732,-0.405771 0.654732,-0.799897 -0.0014,-0.463458 -0.377043,-0.839709 -0.850948,-0.839709 z" /><g
     id="g3611"
     transform="matrix(0.1139459,0,0,0.1139459,-185.23854,-135.47173)"
     style="fill:#222222;fill-opacity:1"><linearGradient
       y2="1333.3677"
       x2="1146.1938"
       y1="1567.3887"
       x1="1146.1938"
       gradientUnits="userSpaceOnUse"
       id="SVGID_1_"><stop
         id="stop3614"
         style="stop-color:#353535"
         offset="0" /><stop
         id="stop3616"
         style="stop-color:#595959"
         offset="1" /></linearGradient><path
       inkscape:connector-curvature="0"
       style="fill:#222222;fill-opacity:1"
       id="path3618"
       d="m 1158.829,1202.894 c -0.283,0 -0.477,3.413 -0.755,3.413 -0.662,2.278 -1.514,4.556 -1.704,6.825 -2.923,20.176 -6.133,40.365 -8.31,60.445 -2.636,23.686 -6.707,48.616 -8.027,72.302 -1.131,18.084 -1.89,36.19 -2.451,54.282 -1.797,30.705 -3.218,124.307 -3.598,147.237 0,0.093 0,0.093 0,0.186 v 0.101 c 0.101,0.949 -0.274,5.885 -0.274,6.446 -0.093,2.843 -0.287,5.683 0,8.529 0,0.38 -0.093,0.565 -0.093,0.853 h 25.213 v -360.619 z" /></g><text
     xml:space="preserve"
     style="font-style:normal;font-weight:normal;font-size:19.46709442px;line-height:12.12251377px;font-family:sans-serif;letter-spacing:0px;word-spacing:0px;fill:#353535;fill-opacity:1;stroke:none;stroke-width:0.48490044"
     x="-25.848732"
     y="38.20882"
     id="text11633"><tspan
       sodipodi:role="line"
       id="tspan11631"
       x="-25.848732"
       y="38.20882"
       style="font-style:normal;font-variant:normal;font-weight:900;font-stretch:normal;font-size:18.10295677px;font-family:Roboto;-inkscape-font-specification:'Roboto Heavy';fill:#353535;fill-opacity:1;stroke-width:0.48490044">COMMANDO</tspan></text>
<text
     xml:space="preserve"
     style="font-style:normal;font-variant:normal;font-weight:normal;font-stretch:normal;font-size:18.81942749px;line-height:11.62522888px;font-family:'Roboto Condensed';-inkscape-font-specification:'Roboto Condensed, ';letter-spacing:0px;word-spacing:0px;fill:#087b38;fill-opacity:1;stroke:none;stroke-width:0.46500918"
     x="-27.41305"
     y="53.018833"
     id="text4539"
     transform="scale(0.98121263,1.0191471)"><tspan
       sodipodi:role="line"
       id="tspan4537"
       x="-27.41305"
       y="53.018833"
       style="font-style:normal;font-variant:normal;font-weight:300;font-stretch:normal;font-family:Roboto;-inkscape-font-specification:'Roboto Light';fill:#087b38;fill-opacity:1;stroke-width:0.46500918">Development</tspan></text>
</svg>