<?xml version="1.0" encoding="UTF-8" standalone="no"?>
<!-- Created with Inkscape (http://www.inkscape.org/) -->

<svg
   xmlns:dc="http://purl.org/dc/elements/1.1/"
   xmlns:cc="http://creativecommons.org/ns#"
   xmlns:rdf="http://www.w3.org/1999/02/22-rdf-syntax-ns#"
   xmlns:svg="http://www.w3.org/2000/svg"
   xmlns="http://www.w3.org/2000/svg"
   xmlns:sodipodi="http://sodipodi.sourceforge.net/DTD/sodipodi-0.dtd"
   xmlns:inkscape="http://www.inkscape.org/namespaces/inkscape"
   width="32"
   height="32"
   viewBox="0 0 210 297"
   version="1.1"
   id="svg4531"
   inkscape:export-filename="/home/ben/docs/org/commandodev.com/static/cdodev.png"
   inkscape:export-xdpi="96.000008"
   inkscape:export-ydpi="96.000008"
   inkscape:version="0.92.1 r15371"
   sodipodi:docname="favicon.svg">
  <defs
     id="defs4525">
    <linearGradient
       id="SVGID_1_"
       gradientUnits="userSpaceOnUse"
       x1="1146.1938"
       y1="1567.3887"
       x2="1146.1938"
       y2="1333.3677">
      <stop
         offset="0"
         style="stop-color:#353535"
         id="stop3614" />
      <stop
         offset="1"
         style="stop-color:#595959"
         id="stop3616" />
    </linearGradient>
  </defs>
  <sodipodi:namedview
     id="base"
     pagecolor="#ffffff"
     bordercolor="#666666"
     borderopacity="1.0"
     inkscape:pageopacity="0.0"
     inkscape:pageshadow="2"
     inkscape:zoom="7.9195959"
     inkscape:cx="48.983341"
     inkscape:cy="18.382267"
     inkscape:document-units="mm"
     inkscape:current-layer="layer1"
     showgrid="false"
     units="px"
     inkscape:window-width="1918"
     inkscape:window-height="1078"
     inkscape:window-x="0"
     inkscape:window-y="0"
     inkscape:window-maximized="0" />
  <metadata
     id="metadata4528">
    <rdf:RDF>
      <cc:Work
         rdf:about="">
        <dc:format>image/svg+xml</dc:format>
        <dc:type
           rdf:resource="http://purl.org/dc/dcmitype/StillImage" />
        <dc:title></dc:title>
      </cc:Work>
    </rdf:RDF>
  </metadata>
  <g
     inkscape:label="Layer 1"
     inkscape:groupmode="layer"
     id="layer1">
    <g
       id="g5152"
       transform="translate(30.279005)">
      <polygon
         inkscape:export-ydpi="300"
         inkscape:export-xdpi="300"
         inkscape:export-filename="/home/ben/docs/org/commandodev.com/static/img/dagger-logo.png"
         transform="matrix(0.51173491,0,0,0.51173491,-516.95919,-617.67498)"
         style="fill:#087b38;fill-opacity:1"
         id="polygon3597"
         points="1387.244,1531.996 1291.023,1386.898 1218.548,1386.898 1316.385,1531.996 1218.548,1677.09 1291.023,1677.09 " />
      <polygon
         inkscape:export-ydpi="300"
         inkscape:export-xdpi="300"
         inkscape:export-filename="/home/ben/docs/org/commandodev.com/static/img/dagger-logo.png"
         transform="matrix(0.51173491,0,0,0.51173491,-516.95919,-617.67498)"
         style="fill:#087b38;fill-opacity:1"
         id="polygon3599"
         points="925.204,1531.996 1021.438,1386.898 1093.909,1386.898 996.073,1531.996 1093.909,1677.09 1021.438,1677.09 " />
      <g
         inkscape:export-ydpi="300"
         inkscape:export-xdpi="300"
         inkscape:export-filename="/home/ben/docs/org/commandodev.com/static/img/dagger-logo.png"
         transform="matrix(2.9700275,0,0,2.9700275,-42.043115,-8.6646175e-6)"
         id="g4318">
        <g
           id="g3601"
           transform="matrix(0.16829124,0,0,0.16829124,-155.70373,-202.43652)">
          <g
             id="g3603">
            <g
               id="g3605">
              <path
                 style="fill:#686868"
                 inkscape:connector-curvature="0"
                 id="path3607"
                 d="m 1183.983,1553.016 c 0,-0.628 -0.435,-5.664 -0.308,-6.521 0,0.034 0,0.034 0,-0.168 -0.397,-22.843 -1.789,-116.19 -3.569,-146.781 -0.599,-18.089 -1.363,-36.126 -2.413,-54.164 -1.405,-23.614 -5.441,-48.452 -8.082,-71.999 -2.219,-20.087 -5.442,-40.154 -8.243,-60.289 -0.279,-2.286 -1.126,-4.539 -1.734,-6.817 -0.257,0 -0.527,-3.357 -0.793,-3.383 -0.257,0.025 -0.527,3.383 -0.797,3.383 -0.625,2.278 -1.456,4.531 -1.713,6.817 -2.852,20.134 -6.07,40.201 -8.285,60.289 -2.645,23.547 -6.657,48.385 -8.002,71.999 -1.101,18.038 -1.865,36.075 -2.455,54.164 -1.789,30.591 -3.21,123.938 -3.577,146.781 0,0.202 0,0.202 0,0.168 0.093,0.857 -0.333,5.894 -0.333,6.521 -0.063,2.811 -0.295,5.688 0,8.514 0.101,0.793 0.038,1.455 -0.093,1.982 h 25.255 25.268 c -0.165,-0.527 -0.202,-1.189 -0.126,-1.982 0.295,-2.827 0.089,-5.704 0,-8.514 z m -3.155,-38.606 -21.986,-20.101 v -111.946 l 18.316,14.531 c 0.856,2.752 3.67,117.516 3.67,117.516 z" />
            </g>
          </g>
        </g>
        <path
           style="fill:#353535"
           inkscape:connector-curvature="0"
           id="path3609"
           d="m 46.245762,60.492977 h -6.92872 -4.24313 -2.68693 c -0.68293,0 -1.25512,0.5558 -1.25512,1.2401 0,0.5821 0.42308,1.0491 0.96969,1.1814 h 3.7391 c -0.0141,0.039 -0.0313,0.054 -0.0448,0.1028 l -0.0838,0.3763 c -0.11359,0.5821 -0.18175,1.3694 -0.22079,2.0727 -0.0121,0.021 -0.0106,0.051 -0.0106,0.074 -0.006,0.1518 -0.01,0.3046 -0.0141,0.4566 -0.004,0.1354 -0.009,0.2497 -0.0128,0.3648 -0.0119,0.4017 -0.0148,0.6843 -0.0148,0.6843 0.0433,0 0.0384,0.036 0.0419,0.065 0,0.021 0.002,0.06 0.0156,0.055 0.11646,-0.039 0.0894,0.1454 0.19236,0.1206 0.006,0.025 0.0121,0.048 0.0135,0.075 0.004,0.084 0,0.1696 0.005,0.2534 0.006,0.1286 -0.0185,0.2087 -0.17822,0.2186 -0.0518,0 -0.11999,0.1101 -0.1725,0.1746 -0.14405,0.1762 -0.0406,0.365 -0.0796,0.5425 -0.0247,0.1136 0.103,0.1441 0.13211,0.2314 0.006,0.016 0.0682,0.037 0.0653,0.09 0,0.013 0.0157,0.04 0.022,0.039 0.11427,-0.013 0.15618,0.1029 0.18748,0.1571 0.0525,0.094 0.0247,0.2228 0.0157,0.3379 -0.004,0.064 -0.12571,0.048 -0.10215,0.1383 -0.10081,-0.028 -0.10872,0.1044 -0.1895,0.1087 -0.0448,0 -0.039,0.036 -0.0406,0.064 -0.0141,0.2327 -0.0128,0.467 0.006,0.6997 0.002,0.045 -0.0106,0.1101 0.0746,0.101 0.0342,0 0.0326,0.033 0.0342,0.058 0.002,0.023 -0.005,0.065 0.0263,0.06 0.1178,-0.018 0.16122,0.1108 0.17822,0.1491 0.0441,0.1022 0.0454,0.2422 -0.004,0.3452 -0.0247,0.053 -0.0717,0.1469 -0.17536,0.1518 -0.12268,0.01 -0.2208,0.1129 -0.225,0.2356 -0.006,0.1873 0.006,0.3755 -0.008,0.5601 -0.008,0.09 0.12269,0.053 0.0979,0.137 0.0986,0.012 0.0816,0.1427 0.18596,0.1745 0.0483,0.014 0.14137,0.082 0.14406,0.1789 0.004,0.089 0.006,0.1789 0.005,0.2684 0,0.186 -0.0703,0.2656 -0.24991,0.2925 -0.0448,0.01 -0.0874,0 -0.0788,0.068 0.002,0.01 0.002,0.02 -0.004,0.024 -0.18461,0.1335 -0.0653,0.3278 -0.0958,0.4913 -0.0128,0.068 0,0.142 -0.002,0.2159 -0.002,0.1021 0.0106,0.1703 0.13985,0.2087 0.0483,0.014 0.12924,0.089 0.18949,0.146 0.19875,0.2016 0.0697,0.4288 0.0931,0.6431 0.003,0.021 0.002,0.046 -0.0234,0.051 -0.0902,0.01 -0.1661,0.021 -0.242,0.097 -0.037,0.037 -0.071,0.062 -0.071,0.1151 0.002,0.2327 0.006,0.467 0.009,0.6997 0.002,0.09 0.12857,0.072 0.12992,0.1584 0.0717,-0.013 0.0851,0.061 0.12134,0.082 0.18175,0.1087 0.19522,0.2726 0.19101,0.4527 -0.003,0.031 -0.003,0.061 -0.003,0.09 -0.004,0.1553 -0.0845,0.2406 -0.23931,0.2517 -0.0902,0 -0.19589,0.1209 -0.19371,0.2124 0.002,0.1059 -0.005,0.2124 0.004,0.3167 0.008,0.087 -0.0525,0.1951 0.0746,0.2535 0.0157,0.01 0.0135,0.063 0.0135,0.096 0,0.053 0.0313,0.062 0.0688,0.092 0.0803,0.064 0.17384,0.1063 0.25412,0.1659 0.0653,0.048 0.14271,0.1235 0.12134,0.2344 -0.003,0.01 0.006,0.02 0.009,0.021 0.19741,0.03 0.0746,0.1761 0.0995,0.2654 0.006,0.024 0.005,0.064 -0.0278,0.061 -0.10568,-0.01 -0.0796,0.1491 -0.1831,0.135 0.0461,0.1222 -0.14624,0.081 -0.13059,0.1846 0.002,0.01 -0.0589,0.021 -0.0916,0.03 -0.0234,0.01 -0.0547,0 -0.0745,0.01 -0.0589,0.038 -0.037,0.103 -0.0313,0.1491 0.0113,0.088 -0.0554,0.2051 0.0439,0.2521 0.0631,0.032 0.0646,0.062 0.0666,0.1114 0,0.037 0.009,0.08 0.002,0.1136 -0.0298,0.1257 0.088,0.1563 0.14406,0.2173 0.056,0.06 0.13211,0.1008 0.17401,0.1753 0.002,0 0.002,0.01 0.003,0.012 0.22854,0.072 0.0873,0.2613 0.12285,0.3961 0.0106,0.034 -0.005,0.074 -0.004,0.1134 0.002,0.054 -0.017,0.07 -0.0724,0.088 -0.0639,0.022 -0.1072,0.09 -0.16324,0.1349 -0.1831,0.152 -0.10367,0.3651 -0.0788,0.536 0.0157,0.1273 0.0618,0.3195 0.20161,0.3691 0.0887,0.031 0.0931,0.1385 0.19236,0.1385 0.0313,0 0.0406,0.6346 0.0114,0.6333 -0.0981,-0.01 -0.0781,0.1518 -0.18664,0.1178 -0.0419,-0.013 -0.0355,0.036 -0.039,0.065 -0.017,0.2173 0.008,0.4315 0.006,0.6488 -0.002,0.018 -0.003,0.046 0.0249,0.051 0.1306,0.021 0.20162,0.139 0.28677,0.2156 0.0887,0.078 0.16829,0.2159 0.12773,0.3692 -0.0141,0.05 -0.008,0.1021 -0.005,0.1533 0.0128,0.1213 -0.0773,0.1831 -0.15466,0.2301 -0.15416,0.09 -0.19388,0.2914 -0.0759,0.4301 0.0432,0.051 0.0183,0.1222 0.0227,0.1833 0.006,0.1462 0.0873,0.2369 0.23005,0.2541 0.0732,0.01 0.18462,0.1292 0.20161,0.2014 0.0128,0.048 -0.009,0.1138 0.0781,0.1352 0.0512,0.013 0.0278,0.2874 -0.0221,0.3221 -0.0121,0.01 -0.0404,0.015 -0.0404,0.021 0.0128,0.1568 -0.071,0.2016 -0.21086,0.1959 -0.0313,0 -0.022,0.04 -0.0247,0.063 -0.0207,0.2038 -0.005,0.4082 0.006,0.6099 0.002,0.039 0.01,0.067 0.0574,0.064 0.0496,0 0.0703,0.021 0.0703,0.067 0,0.026 0.0183,0.036 0.0432,0.037 0.13632,0.011 0.22787,0.073 0.25766,0.2159 0,0 0.003,0.01 0.006,0.01 0.19808,0.036 0.0931,0.1939 0.11579,0.2962 0.0113,0.04 0.004,0.087 -0.002,0.1271 -0.009,0.058 -0.0121,0.099 -0.0894,0.135 -0.0702,0.031 -0.12285,0.109 -0.21726,0.1107 -0.006,0 -0.0157,0.037 -0.0157,0.055 -0.006,0.1619 -0.0234,0.3251 0.0227,0.48 0.034,0.1072 0.0752,0.2236 0.2272,0.2221 0.0851,0 0.10518,0.087 0.1661,0.1272 0.13346,0.09 0.12571,0.2498 0.10872,0.4004 -0.006,0.047 0.0135,0.1059 -0.0688,0.1086 -0.0342,0 -0.0199,0.041 -0.0263,0.062 -0.0185,0.066 0.0298,0.1579 -0.088,0.1789 -0.0313,0 -0.0177,0.2917 0.0148,0.2996 0.0767,0.016 0.0611,0.069 0.0624,0.1163 0.003,0.09 0.0141,0.1804 0.006,0.2669 0,0 0.003,0.01 0.003,0.013 l 0.0313,0.8547 c -0.002,0.073 0.003,0.1277 0.003,0.1277 h -0.003 c 0.0973,0.8333 -0.11999,2.9503 -0.11999,2.9503 l -0.003,-0.01 c -0.0539,0.6553 -0.17822,1.4077 -0.42662,2.2541 l -0.0547,0.4359 c -0.0135,0.4358 0.11074,0.8177 0.38203,1.1734 0.0141,0.026 0.0404,0.067 0.0547,0.1897 0.20447,1.1998 0.57286,1.5952 1.74417,1.8401 0.20801,0.047 0.41736,0.062 0.62537,0.07 0.0377,0 0.0746,0.012 0.11225,0.012 0.009,0 0.0172,0 0.0263,0 0.009,0 0.017,0 0.0263,0 0.0377,0 0.0746,-0.011 0.11141,-0.012 0.20868,-0.01 0.4182,-0.024 0.62621,-0.07 1.17131,-0.2449 1.53919,-0.6403 1.74417,-1.8401 0.0141,-0.1228 0.0406,-0.1634 0.0547,-0.1897 0.27129,-0.3556 0.39549,-0.7376 0.38202,-1.1734 l -0.0547,-0.4359 c -0.24857,-0.8462 -0.3726,-1.5988 -0.42662,-2.2541 l -0.004,0.01 c 0,0 -0.21727,-2.117 -0.11932,-2.9503 l 0.002,-0.053 c 0.002,-0.017 0.002,-0.022 0.002,-0.048 l 0.0313,-0.8932 c -0.008,-0.086 0.004,-0.1767 0.006,-0.2669 0.002,-0.047 -0.0141,-0.1008 0.0618,-0.1163 0.0326,-0.01 0.0469,-0.2953 0.0156,-0.2995 -0.11798,-0.021 -0.0697,-0.1136 -0.0887,-0.1789 -0.006,-0.021 0.008,-0.06 -0.0263,-0.062 -0.0816,0 -0.0618,-0.062 -0.0681,-0.1085 -0.0172,-0.1506 -0.0249,-0.3104 0.10854,-0.4004 0.0611,-0.04 0.081,-0.1306 0.16611,-0.1272 0.15196,0 0.19235,-0.1151 0.22652,-0.2222 0.0468,-0.1548 0.0298,-0.318 0.0234,-0.4799 0,-0.018 -0.009,-0.055 -0.0156,-0.055 -0.0944,0 -0.14759,-0.08 -0.21727,-0.1108 -0.0772,-0.035 -0.0809,-0.077 -0.0894,-0.1349 -0.005,-0.04 -0.0128,-0.087 -0.002,-0.1271 0.0234,-0.1021 -0.0823,-0.2607 0.11646,-0.2962 0.004,0 0.006,-0.01 0.006,-0.01 0.0298,-0.1427 0.12066,-0.2045 0.25765,-0.2159 0.0249,0 0.0432,-0.011 0.0432,-0.037 0,-0.045 0.0199,-0.07 0.0697,-0.067 0.0483,0 0.056,-0.025 0.0576,-0.064 0.0113,-0.2016 0.0263,-0.4061 0.006,-0.6099 -0.003,-0.023 0.006,-0.065 -0.0249,-0.063 -0.13985,0.01 -0.22366,-0.039 -0.21087,-0.1959 0,-0.01 -0.0283,-0.014 -0.0404,-0.021 -0.0497,-0.035 -0.0732,-0.3095 -0.0221,-0.3222 0.0874,-0.021 0.0653,-0.087 0.0781,-0.1351 0.0172,-0.072 0.12857,-0.1917 0.20161,-0.2014 0.14271,-0.017 0.22366,-0.1079 0.23006,-0.2542 0.004,-0.061 -0.0205,-0.1321 0.0227,-0.1832 0.1178,-0.1385 0.0781,-0.3401 -0.0761,-0.4302 -0.0774,-0.047 -0.16762,-0.1087 -0.1555,-0.23 0.004,-0.051 0.01,-0.1037 -0.004,-0.1533 -0.0404,-0.1534 0.0384,-0.2917 0.12706,-0.3693 0.0858,-0.076 0.15685,-0.1944 0.28744,-0.2156 0.0278,-0.01 0.0263,-0.033 0.0247,-0.051 -0.002,-0.2172 0.0234,-0.4315 0.006,-0.6487 -0.004,-0.03 0.003,-0.078 -0.039,-0.065 -0.10871,0.034 -0.0887,-0.1278 -0.1868,-0.1178 -0.0291,0 -0.0199,-0.6333 0.0114,-0.6333 0.0993,0 0.10367,-0.1074 0.19236,-0.1385 0.13985,-0.05 0.18596,-0.242 0.20161,-0.3691 0.0249,-0.171 0.10434,-0.3839 -0.0788,-0.536 -0.056,-0.045 -0.0995,-0.1129 -0.16341,-0.135 -0.056,-0.018 -0.0746,-0.034 -0.073,-0.088 0.002,-0.039 -0.0135,-0.079 -0.003,-0.1134 0.0355,-0.135 -0.10569,-0.3245 0.12285,-0.3962 0.002,0 0.002,-0.01 0.003,-0.012 0.0419,-0.075 0.11781,-0.1151 0.17402,-0.1754 0.056,-0.061 0.17384,-0.091 0.14406,-0.2172 -0.008,-0.034 0.002,-0.077 0.002,-0.1136 0.002,-0.05 0.004,-0.08 0.0666,-0.1115 0.0993,-0.047 0.0326,-0.1647 0.0441,-0.2521 0.006,-0.046 0.0278,-0.1114 -0.0313,-0.1491 -0.0199,-0.01 -0.0512,0 -0.0746,-0.01 -0.0326,-0.01 -0.0929,-0.024 -0.0915,-0.03 0.0157,-0.1035 -0.17671,-0.062 -0.1306,-0.1846 -0.10366,0.014 -0.0772,-0.1448 -0.1831,-0.135 -0.0327,0 -0.034,-0.038 -0.0278,-0.061 0.0249,-0.089 -0.0979,-0.2356 0.0995,-0.2654 0.003,0 0.0121,-0.016 0.009,-0.021 -0.022,-0.1107 0.056,-0.186 0.12067,-0.2344 0.0809,-0.06 0.17384,-0.1022 0.25479,-0.166 0.0377,-0.03 0.0682,-0.039 0.0682,-0.092 0,-0.033 -0.002,-0.09 0.0141,-0.096 0.12706,-0.058 0.0666,-0.1661 0.0746,-0.2535 0.009,-0.1043 0.003,-0.2109 0.004,-0.3167 0.002,-0.092 -0.10366,-0.208 -0.1937,-0.2124 -0.1555,-0.011 -0.23561,-0.096 -0.23914,-0.2518 0,-0.029 0,-0.059 -0.003,-0.09 -0.004,-0.1801 0.009,-0.3442 0.19101,-0.4527 0.0355,-0.021 0.0496,-0.095 0.12134,-0.082 0.002,-0.087 0.12857,-0.068 0.12992,-0.1584 0.004,-0.2327 0.008,-0.467 0.009,-0.6998 0,-0.053 -0.0342,-0.077 -0.071,-0.1151 -0.0767,-0.076 -0.15196,-0.087 -0.242,-0.097 -0.0249,0 -0.0263,-0.03 -0.0234,-0.051 0.0234,-0.2142 -0.10586,-0.4414 0.0929,-0.643 0.0604,-0.057 0.14119,-0.1319 0.18949,-0.1461 0.12858,-0.039 0.1412,-0.1065 0.13918,-0.2087 -0.002,-0.074 0.0113,-0.1477 -0.002,-0.2159 -0.0313,-0.1634 0.0887,-0.3578 -0.0958,-0.4912 -0.005,0 -0.005,-0.016 -0.004,-0.024 0.008,-0.064 -0.034,-0.062 -0.0788,-0.068 -0.1804,-0.027 -0.24991,-0.1066 -0.24991,-0.2925 -0.002,-0.089 0.002,-0.1796 0.005,-0.2685 0.003,-0.096 0.0958,-0.1647 0.14406,-0.1789 0.10367,-0.032 0.0867,-0.1624 0.18596,-0.1745 -0.0247,-0.084 0.10569,-0.047 0.098,-0.137 -0.0141,-0.1846 -0.002,-0.3727 -0.008,-0.56 -0.004,-0.1227 -0.10215,-0.2286 -0.225,-0.2356 -0.10434,0 -0.15062,-0.1 -0.17536,-0.1518 -0.0496,-0.1029 -0.0483,-0.2429 -0.005,-0.3452 0.0177,-0.038 0.0604,-0.1675 0.17889,-0.1491 0.0306,0 0.0249,-0.037 0.0263,-0.06 0.002,-0.025 0,-0.059 0.0342,-0.057 0.0852,0.01 0.0732,-0.056 0.0745,-0.101 0.0185,-0.2327 0.0205,-0.467 0.006,-0.6997 -0.002,-0.029 0.004,-0.061 -0.0406,-0.064 -0.081,0 -0.0887,-0.1363 -0.18949,-0.1087 0.0234,-0.09 -0.0981,-0.075 -0.10216,-0.1383 -0.009,-0.1152 -0.0377,-0.2436 0.0156,-0.338 0.0313,-0.054 0.0724,-0.1705 0.18731,-0.157 0.006,0 0.0221,-0.026 0.0221,-0.039 -0.004,-0.053 0.0589,-0.074 0.0653,-0.09 0.0291,-0.087 0.15685,-0.1178 0.13127,-0.2314 -0.0384,-0.1775 0.0653,-0.3664 -0.0788,-0.5426 -0.0525,-0.064 -0.12134,-0.1716 -0.1725,-0.1745 -0.15971,-0.01 -0.18461,-0.09 -0.17822,-0.2186 0.005,-0.084 0.002,-0.1696 0.005,-0.2534 0.002,-0.026 0.007,-0.05 0.0135,-0.075 0.10299,0.025 0.0761,-0.1597 0.19235,-0.1207 0.0141,0.01 0.0157,-0.034 0.0157,-0.055 0.003,-0.029 -0.002,-0.067 0.0419,-0.065 0,0 -0.003,-0.2827 -0.0157,-0.6842 -0.003,-0.1151 -0.008,-0.2294 -0.0121,-0.3649 -0.005,-0.1519 -0.008,-0.3048 -0.0141,-0.4566 0,-0.023 0.002,-0.053 -0.0106,-0.074 -0.039,-0.7035 -0.1072,-1.4906 -0.2208,-2.0727 l -0.0838,-0.3763 c -0.0141,-0.048 -0.0313,-0.064 -0.0448,-0.1028 h 3.61624 c 0.55435,-0.1321 0.967,-0.5993 0.967,-1.1814 -0.002,-0.6845 -0.55687,-1.2402 -1.2568,-1.2402 z" />
        <g
           id="g3611"
           transform="matrix(0.16829124,0,0,0.16829124,-155.70373,-202.43652)">
          <linearGradient
             y2="1333.3677"
             x2="1146.1938"
             y1="1567.3887"
             x1="1146.1938"
             gradientUnits="userSpaceOnUse"
             id="linearGradient5098">
            <stop
               id="stop5094"
               style="stop-color:#353535"
               offset="0" />
            <stop
               id="stop5096"
               style="stop-color:#595959"
               offset="1" />
          </linearGradient>
          <path
             inkscape:connector-curvature="0"
             style="fill:url(#SVGID_1_)"
             id="path3618"
             d="m 1158.829,1202.894 c -0.283,0 -0.477,3.413 -0.755,3.413 -0.662,2.278 -1.514,4.556 -1.704,6.825 -2.923,20.176 -6.133,40.365 -8.31,60.445 -2.636,23.686 -6.707,48.616 -8.027,72.302 -1.131,18.084 -1.89,36.19 -2.451,54.282 -1.797,30.705 -3.218,124.307 -3.598,147.237 0,0.093 0,0.093 0,0.186 v 0.101 c 0.101,0.949 -0.274,5.885 -0.274,6.446 -0.093,2.843 -0.287,5.683 0,8.529 0,0.38 -0.093,0.565 -0.093,0.853 h 25.213 v -360.619 z" />
        </g>
      </g>
    </g>
  </g>
</svg>
