<?xml version="1.0" encoding="UTF-8" standalone="no"?>
<!-- Generator: Adobe Illustrator 16.0.0, SVG Export Plug-In . SVG Version: 6.00 Build 0)  -->

<svg
   xmlns:dc="http://purl.org/dc/elements/1.1/"
   xmlns:cc="http://creativecommons.org/ns#"
   xmlns:rdf="http://www.w3.org/1999/02/22-rdf-syntax-ns#"
   xmlns:svg="http://www.w3.org/2000/svg"
   xmlns="http://www.w3.org/2000/svg"
   xmlns:sodipodi="http://sodipodi.sourceforge.net/DTD/sodipodi-0.dtd"
   xmlns:inkscape="http://www.inkscape.org/namespaces/inkscape"
   version="1.1"
   id="Layer_1"
   x="0px"
   y="0px"
   width="84mm"
   height="55mm"
   viewBox="0 0 0.013186668 165.58251"
   enable-background="new 0 0 3000 3000"
   xml:space="preserve"
   inkscape:version="0.92.1 r15371"
   sodipodi:docname="moo-sticker.svg"
   inkscape:export-filename="/home/ben/docs/org/commandodev.com/logo/moo-sticker.png"
   inkscape:export-xdpi="300"
   inkscape:export-ydpi="300"><metadata
     id="metadata3644"><rdf:RDF><cc:Work
         rdf:about=""><dc:format>image/svg+xml</dc:format><dc:type
           rdf:resource="http://purl.org/dc/dcmitype/StillImage" /><dc:title></dc:title></cc:Work></rdf:RDF></metadata><defs
     id="defs3642" /><sodipodi:namedview
     pagecolor="#ffffff"
     bordercolor="#666666"
     borderopacity="1"
     objecttolerance="10"
     gridtolerance="10"
     guidetolerance="10"
     inkscape:pageopacity="0"
     inkscape:pageshadow="2"
     inkscape:window-width="1920"
     inkscape:window-height="1080"
     id="namedview3640"
     showgrid="false"
     fit-margin-top="2"
     fit-margin-left="2"
     fit-margin-right="2"
     fit-margin-bottom="2"
     inkscape:zoom="1.4142136"
     inkscape:cx="-11.639135"
     inkscape:cy="193.30444"
     inkscape:window-x="0"
     inkscape:window-y="0"
     inkscape:window-maximized="0"
     inkscape:current-layer="Layer_1"
     scale-x="1e-05"
     inkscape:pagecheckerboard="true"
     showguides="true"
     inkscape:guide-bbox="true"
     units="mm"><sodipodi:guide
       position="0.0026432959,82.791258"
       orientation="0,1"
       id="guide6710"
       inkscape:locked="false"
       inkscape:label=""
       inkscape:color="rgb(0,0,255)" /><sodipodi:guide
       position="0.013108176,155.72597"
       orientation="1,0"
       id="guide6752"
       inkscape:locked="false"
       inkscape:label=""
       inkscape:color="rgb(0,0,255)" /></sodipodi:namedview><g
     id="g11070"
     transform="translate(0,-6.3668314)"><path
       sodipodi:nodetypes="ccccc"
       inkscape:connector-curvature="0"
       id="rect4773"
       d="m -83.192041,60.804721 3.986946,0.331389 0.497083,24.232328 h -4.484029 z"
       style="fill:#ffffff;fill-opacity:1;stroke:none;stroke-width:1.24974525;stroke-opacity:1" /><g
       style="fill:#686868;fill-opacity:1;stroke:none;stroke-opacity:1"
       transform="matrix(0.17877466,0,0,0.17877466,-290.25197,-185.14876)"
       id="g3601"><g
         style="fill:#686868;fill-opacity:1;stroke:none;stroke-opacity:1"
         id="g3603"><g
           style="fill:#686868;fill-opacity:1;stroke:none;stroke-opacity:1"
           id="g3605"><path
             inkscape:connector-curvature="0"
             d="m 1186.4545,1551.7802 c 0,-0.628 -0.435,-5.664 -0.308,-6.521 0,0.034 0,0.034 0,-0.168 -0.397,-22.843 -1.789,-116.19 -3.569,-146.781 -0.599,-18.089 -1.363,-36.126 -2.413,-54.164 -1.405,-23.614 -5.441,-48.452 -8.082,-71.999 -2.219,-20.087 -5.442,-40.154 -8.243,-60.289 -0.279,-2.286 -1.126,-4.539 -1.734,-6.817 -0.257,0 -0.527,-3.357 -0.793,-3.383 -0.257,0.025 -0.527,3.383 -0.797,3.383 -0.625,2.278 -1.456,4.531 -1.713,6.817 -2.852,20.134 -6.07,40.201 -8.285,60.289 -2.645,23.547 -6.657,48.385 -8.002,71.999 -1.101,18.038 -1.865,36.075 -2.455,54.164 -1.789,30.591 -3.21,123.938 -3.577,146.781 0,0.202 0,0.202 0,0.168 0.093,0.857 -0.333,5.894 -0.333,6.521 -0.063,2.811 -0.295,5.688 0,8.514 0.101,0.793 0.038,1.455 -0.093,1.982 h 25.255 25.268 c -0.165,-0.527 -0.202,-1.189 -0.126,-1.982 0.295,-2.827 0.089,-5.704 0,-8.514 z m -3.155,-38.606 -21.986,-20.101 v -111.946 l 18.316,14.531 c 0.856,2.752 3.67,117.516 3.67,117.516 z"
             style="fill:#686868;fill-opacity:1;stroke:none;stroke-opacity:1"
             id="path3607" /></g></g></g><polygon
       transform="matrix(0.18303283,0,0,0.18303283,-294.27565,-191.24748)"
       style="fill:#087b38;fill-opacity:1"
       id="polygon3597"
       points="1316.385,1531.996 1218.548,1677.09 1291.023,1677.09 1387.244,1531.996 1291.023,1386.898 1218.548,1386.898 " /><polygon
       transform="matrix(0.18303283,0,0,0.18303283,-294.27565,-191.24748)"
       style="fill:#087b38;fill-opacity:1"
       id="polygon3599"
       points="996.073,1531.996 1093.909,1677.09 1021.438,1677.09 925.204,1531.996 1021.438,1386.898 1093.909,1386.898 " /><path
       d="m -75.285274,93.938366 h -7.360334 -4.507448 -2.854307 c -0.725473,0 -1.333306,0.590421 -1.333306,1.317349 0,0.618361 0.449436,1.114452 1.030096,1.254993 h 3.97202 c -0.0149,0.04144 -0.03325,0.05736 -0.04759,0.109198 l -0.08902,0.39974 c -0.120668,0.618362 -0.193071,1.454706 -0.234543,2.201816 -0.01286,0.02231 -0.0113,0.05418 -0.0113,0.0786 -0.0064,0.161258 -0.01067,0.323576 -0.0149,0.485044 -0.0042,0.14384 -0.0096,0.265254 -0.01365,0.387524 -0.01271,0.42673 -0.01572,0.72693 -0.01572,0.72693 0.046,0 0.04079,0.0382 0.04451,0.0691 0,0.0223 0.0022,0.0637 0.01657,0.0584 0.123711,-0.0414 0.09497,0.15446 0.204342,0.12812 0.0064,0.0266 0.01286,0.051 0.01428,0.0797 0.0042,0.0892 0,0.18016 0.0053,0.26918 0.0064,0.13661 -0.01966,0.22171 -0.189323,0.23222 -0.05502,0 -0.127461,0.11697 -0.183245,0.18548 -0.153019,0.18717 -0.04313,0.38774 -0.08455,0.57629 -0.02623,0.12069 0.109418,0.15308 0.140342,0.24582 0.0064,0.017 0.07245,0.0393 0.06936,0.0956 0,0.0138 0.01668,0.0425 0.02338,0.0414 0.121389,-0.0138 0.16591,0.10931 0.199159,0.16689 0.05578,0.0999 0.02623,0.23668 0.01668,0.35895 -0.0042,0.068 -0.133549,0.051 -0.108508,0.14692 -0.107097,-0.0297 -0.11549,0.1109 -0.201305,0.11547 -0.04759,0 -0.04144,0.0382 -0.04313,0.068 -0.0149,0.2472 -0.01365,0.49609 0.0064,0.74329 0.0022,0.0478 -0.0113,0.11696 0.07925,0.10728 0.03634,0 0.03463,0.0351 0.03634,0.0616 0.0022,0.0244 -0.0053,0.0691 0.02794,0.0637 0.125139,-0.0191 0.171263,0.1177 0.189323,0.15838 0.04685,0.10858 0.04823,0.25729 -0.0042,0.36671 -0.02623,0.0563 -0.07617,0.15605 -0.186284,0.16125 -0.130317,0.0107 -0.234554,0.11993 -0.239016,0.25028 -0.0064,0.19897 0.0064,0.39889 -0.0085,0.59499 -0.0085,0.0956 0.130332,0.0563 0.104005,0.14554 0.104743,0.0127 0.08668,0.15159 0.197544,0.18537 0.0513,0.0149 0.150179,0.0871 0.153035,0.19004 0.0042,0.0945 0.0064,0.19005 0.0053,0.28512 0,0.19759 -0.07468,0.28215 -0.265478,0.31072 -0.04759,0.0107 -0.09285,0 -0.0837,0.0722 0.0022,0.0107 0.0022,0.0212 -0.0042,0.0255 -0.19611,0.14182 -0.06936,0.34822 -0.101762,0.52191 -0.01365,0.0722 0,0.15083 -0.0022,0.22935 -0.0022,0.10846 0.0113,0.1809 0.148563,0.2217 0.0513,0.0149 0.137298,0.0945 0.201294,0.15509 0.211131,0.21415 0.07404,0.45551 0.09891,0.68316 0.0031,0.0223 0.0022,0.0489 -0.02485,0.0542 -0.09582,0.0107 -0.176448,0.0223 -0.257076,0.10305 -0.0393,0.0393 -0.07542,0.0659 -0.07542,0.12227 0.0022,0.2472 0.0064,0.49609 0.0096,0.74329 0.0022,0.0956 0.136576,0.0765 0.138019,0.16826 0.07617,-0.0138 0.0904,0.0648 0.128905,0.0871 0.193071,0.11548 0.20738,0.28958 0.202908,0.4809 -0.0031,0.0329 -0.0031,0.0648 -0.0031,0.0956 -0.0042,0.16498 -0.08976,0.25559 -0.254217,0.26738 -0.09582,0 -0.208094,0.12844 -0.205778,0.22563 0.0022,0.1125 -0.0053,0.22563 0.0042,0.33643 0.0085,0.0924 -0.05578,0.20725 0.07925,0.26929 0.01668,0.0107 0.01428,0.0669 0.01428,0.10198 0,0.0563 0.03325,0.0659 0.07308,0.0977 0.0853,0.068 0.184669,0.11292 0.269949,0.17624 0.06936,0.051 0.151607,0.13119 0.128905,0.249 -0.0031,0.0107 0.0064,0.0212 0.0096,0.0223 0.209708,0.0319 0.07925,0.18707 0.1057,0.28193 0.0064,0.0255 0.0053,0.068 -0.02953,0.0648 -0.112258,-0.0107 -0.08457,0.15839 -0.194507,0.14341 0.04897,0.12982 -0.155357,0.0861 -0.138726,0.1961 0.0022,0.0107 -0.06257,0.0223 -0.09731,0.0319 -0.02485,0.0107 -0.05811,0 -0.07914,0.0107 -0.06257,0.0404 -0.0393,0.10942 -0.03325,0.15839 0.01208,0.0935 -0.05885,0.21787 0.04663,0.2678 0.06703,0.034 0.06863,0.0659 0.07074,0.11835 0,0.0393 0.0096,0.085 0.0022,0.12068 -0.03166,0.13353 0.09348,0.16603 0.153035,0.23084 0.05949,0.0637 0.140342,0.10708 0.184849,0.18621 0.0022,0 0.0022,0.0107 0.0031,0.0127 0.242777,0.0765 0.09274,0.27758 0.130505,0.42078 0.0113,0.0361 -0.0053,0.0786 -0.0042,0.12046 0.0022,0.0574 -0.01806,0.0744 -0.07691,0.0935 -0.06789,0.0234 -0.113874,0.0956 -0.173409,0.14331 -0.194505,0.16147 -0.110124,0.38784 -0.0837,0.56939 0.01668,0.13522 0.06565,0.3394 0.214169,0.39209 0.09423,0.0329 0.09889,0.14713 0.204342,0.14713 0.03325,0 0.04313,0.67414 0.01208,0.67275 -0.104209,-0.0107 -0.08297,0.16126 -0.198268,0.12514 -0.04451,-0.0138 -0.03772,0.0382 -0.04144,0.069 -0.01806,0.23084 0.0085,0.45838 0.0064,0.68922 -0.0022,0.0191 -0.0031,0.0489 0.02645,0.0542 0.138741,0.0223 0.214179,0.14766 0.304634,0.22903 0.09423,0.0829 0.178773,0.22935 0.135682,0.3922 -0.0149,0.0531 -0.0085,0.10846 -0.0053,0.16285 0.01365,0.12886 -0.08212,0.19451 -0.164293,0.24444 -0.163763,0.0956 -0.205958,0.30955 -0.08063,0.45689 0.04589,0.0542 0.01944,0.12981 0.02411,0.19472 0.0064,0.15531 0.09274,0.25165 0.244381,0.26992 0.07776,0.0107 0.19612,0.13726 0.214169,0.21395 0.01365,0.051 -0.0096,0.12089 0.08297,0.14362 0.05439,0.0138 0.02953,0.3053 -0.02347,0.34217 -0.01287,0.0107 -0.04291,0.0159 -0.04291,0.0223 0.01365,0.16656 -0.07542,0.21416 -0.223995,0.2081 -0.03325,0 -0.02336,0.0425 -0.02623,0.0669 -0.022,0.2165 -0.0053,0.43363 0.0064,0.64789 0.0022,0.0414 0.01067,0.0712 0.06097,0.068 0.05268,0 0.07468,0.0223 0.07468,0.0712 0,0.0276 0.01944,0.0382 0.04589,0.0393 0.144814,0.0116 0.242065,0.0776 0.27371,0.22935 0,0 0.0031,0.0107 0.0064,0.0107 0.210419,0.0382 0.09891,0.20598 0.123005,0.31465 0.01208,0.0425 0.0042,0.0924 -0.0022,0.13502 -0.0096,0.0616 -0.01287,0.10517 -0.09497,0.14342 -0.07457,0.0329 -0.130504,0.11579 -0.230794,0.11759 -0.0064,0 -0.01668,0.0393 -0.01668,0.0584 -0.0064,0.17199 -0.02485,0.34535 0.02411,0.5099 0.03612,0.11388 0.07989,0.23753 0.241353,0.23594 0.0904,0 0.111724,0.0924 0.176448,0.13511 0.141769,0.0956 0.133548,0.26537 0.11549,0.42535 -0.0064,0.0499 0.01428,0.11249 -0.07308,0.11536 -0.03634,0 -0.02113,0.0435 -0.02794,0.0659 -0.01964,0.0701 0.03166,0.16774 -0.09348,0.19005 -0.03325,0 -0.0188,0.30987 0.01572,0.31826 0.08148,0.017 0.06491,0.0733 0.06629,0.12354 0.0031,0.0956 0.0149,0.19164 0.0064,0.28353 0,0 0.0031,0.0107 0.0031,0.0138 l 0.03325,0.90794 c -0.0022,0.0776 0.0031,0.13566 0.0031,0.13566 h -0.0031 c 0.103362,0.8852 -0.127461,3.13408 -0.127461,3.13408 l -0.0031,-0.0107 c -0.05725,0.69612 -0.189323,1.49539 -0.453196,2.39451 l -0.05811,0.46306 c -0.01428,0.46295 0.117639,0.86864 0.405827,1.24649 0.0149,0.0276 0.04291,0.0712 0.05811,0.20152 0.217206,1.27454 0.608544,1.69457 1.85282,1.95473 0.220967,0.0499 0.443358,0.0659 0.664327,0.0744 0.04006,0 0.07925,0.0127 0.119239,0.0127 0.0096,0 0.01828,0 0.02794,0 0.0096,0 0.01806,0 0.02794,0 0.04005,0 0.07925,-0.0116 0.118346,-0.0127 0.221679,-0.0107 0.444251,-0.0255 0.665217,-0.0744 1.244276,-0.26016 1.635071,-0.68019 1.85282,-1.95473 0.0149,-0.13044 0.04313,-0.17358 0.05811,-0.20152 0.28819,-0.37775 0.420127,-0.78354 0.405818,-1.24649 l -0.05811,-0.46306 c -0.264055,-0.89891 -0.395812,-1.69839 -0.453196,-2.39451 l -0.0042,0.0107 c 0,0 -0.230804,-2.24888 -0.126755,-3.13408 l 0.0022,-0.0563 c 0.0022,-0.0181 0.0022,-0.0234 0.0022,-0.051 l 0.03325,-0.94885 c -0.0085,-0.0913 0.0042,-0.1877 0.0064,-0.28352 0.0022,-0.0499 -0.0149,-0.10708 0.06564,-0.12354 0.03463,-0.0107 0.04983,-0.3137 0.01657,-0.31816 -0.125327,-0.0223 -0.07404,-0.12068 -0.09423,-0.19004 -0.0064,-0.0223 0.0085,-0.0638 -0.02794,-0.0659 -0.08669,0 -0.06565,-0.0659 -0.07234,-0.11526 -0.01828,-0.15998 -0.02645,-0.32973 0.115301,-0.42534 0.06491,-0.0425 0.08604,-0.13874 0.176458,-0.13512 0.161425,0 0.204331,-0.12227 0.24063,-0.23604 0.04972,-0.16444 0.03166,-0.33781 0.02485,-0.5098 0,-0.0191 -0.0096,-0.0584 -0.01657,-0.0584 -0.100287,0 -0.156784,-0.085 -0.230804,-0.1177 -0.08201,-0.0372 -0.08595,-0.0818 -0.09497,-0.14331 -0.0053,-0.0425 -0.01365,-0.0924 -0.0022,-0.13503 0.02485,-0.10846 -0.08742,-0.27693 0.123712,-0.31465 0.0042,0 0.0064,-0.0107 0.0064,-0.0107 0.03166,-0.1516 0.128183,-0.21724 0.273699,-0.22935 0.02645,0 0.04589,-0.0116 0.04589,-0.0393 0,-0.0478 0.02113,-0.0743 0.07404,-0.0712 0.0513,0 0.05949,-0.0266 0.06119,-0.068 0.01208,-0.21415 0.02794,-0.43139 0.0064,-0.64789 -0.0031,-0.0244 0.0064,-0.0691 -0.02645,-0.0669 -0.148563,0.0107 -0.237593,-0.0414 -0.224006,-0.2081 0,-0.0107 -0.03006,-0.0149 -0.04291,-0.0223 -0.0528,-0.0372 -0.07776,-0.32878 -0.02347,-0.34227 0.09285,-0.0223 0.06936,-0.0924 0.08297,-0.14352 0.01828,-0.0765 0.136577,-0.20364 0.21417,-0.21394 0.151592,-0.0181 0.237592,-0.11463 0.244392,-0.27004 0.0042,-0.0648 -0.02178,-0.14032 0.02411,-0.19461 0.125139,-0.14712 0.08297,-0.36128 -0.08085,-0.457 -0.08223,-0.0499 -0.178063,-0.11547 -0.165187,-0.24432 0.0042,-0.0542 0.01067,-0.11016 -0.0042,-0.16285 -0.04291,-0.16296 0.04079,-0.30988 0.134976,-0.39231 0.09114,-0.0807 0.166621,-0.20651 0.305345,-0.22903 0.02953,-0.0107 0.02794,-0.035 0.02623,-0.0542 -0.0022,-0.23073 0.02485,-0.45838 0.0064,-0.68911 -0.0042,-0.0319 0.0031,-0.0828 -0.04144,-0.0691 -0.115475,0.0361 -0.09423,-0.13576 -0.198436,-0.12513 -0.03091,0 -0.02113,-0.67275 0.01208,-0.67275 0.10548,0 0.110124,-0.1141 0.204344,-0.14714 0.148563,-0.0531 0.197544,-0.25707 0.214169,-0.39209 0.02645,-0.18165 0.110846,-0.40782 -0.0837,-0.56939 -0.05949,-0.0478 -0.1057,-0.11993 -0.17359,-0.1434 -0.05949,-0.0191 -0.07925,-0.0361 -0.07755,-0.0935 0.0022,-0.0414 -0.01428,-0.0839 -0.0031,-0.12046 0.03772,-0.14342 -0.112273,-0.34472 0.130505,-0.42089 0.0022,0 0.0022,-0.0107 0.0031,-0.0127 0.04451,-0.0797 0.125155,-0.12227 0.184859,-0.18633 0.05949,-0.0648 0.184669,-0.0967 0.153035,-0.23073 -0.0085,-0.0361 0.0022,-0.0818 0.0022,-0.12068 0.0022,-0.0531 0.0042,-0.085 0.07074,-0.11844 0.10548,-0.0499 0.03463,-0.17496 0.04685,-0.26781 0.0064,-0.0489 0.02953,-0.11834 -0.03325,-0.15839 -0.02113,-0.0107 -0.05439,0 -0.07925,-0.0107 -0.03463,-0.0107 -0.09869,-0.0255 -0.0972,-0.0319 0.01668,-0.10995 -0.187717,-0.0659 -0.138741,-0.1961 -0.110124,0.0149 -0.08201,-0.15382 -0.194505,-0.1434 -0.03474,0 -0.03612,-0.0404 -0.02953,-0.0648 0.02645,-0.0945 -0.104005,-0.25027 0.1057,-0.28193 0.0031,0 0.01287,-0.017 0.0096,-0.0223 -0.02338,-0.11759 0.05949,-0.19759 0.128183,-0.249 0.08593,-0.0637 0.184668,-0.10857 0.270662,-0.17634 0.04005,-0.0319 0.07245,-0.0414 0.07245,-0.0977 0,-0.035 -0.0022,-0.0956 0.0149,-0.10198 0.134977,-0.0616 0.07074,-0.17645 0.07925,-0.26929 0.0096,-0.1108 0.0031,-0.22404 0.0042,-0.33643 0.0022,-0.0977 -0.110124,-0.22096 -0.205765,-0.22563 -0.165188,-0.0116 -0.250288,-0.10198 -0.254037,-0.26749 0,-0.0308 0,-0.0627 -0.0031,-0.0956 -0.0042,-0.19132 0.0096,-0.36564 0.202908,-0.4809 0.03772,-0.0223 0.05268,-0.10092 0.128904,-0.0871 0.0022,-0.0924 0.136577,-0.0722 0.13802,-0.16827 0.0042,-0.24719 0.0085,-0.49609 0.0096,-0.74339 0,-0.0563 -0.03634,-0.0818 -0.07542,-0.12227 -0.08147,-0.0807 -0.161426,-0.0924 -0.257075,-0.10305 -0.02645,0 -0.02794,-0.0319 -0.02485,-0.0542 0.02485,-0.22754 -0.112446,-0.4689 0.09869,-0.68306 0.06415,-0.0605 0.149991,-0.14012 0.201294,-0.15519 0.136592,-0.0414 0.149991,-0.11314 0.147857,-0.22171 -0.0022,-0.0786 0.01208,-0.1569 -0.0022,-0.22934 -0.03325,-0.17358 0.09423,-0.38009 -0.101761,-0.5218 -0.0053,0 -0.0053,-0.017 -0.0042,-0.0255 0.0085,-0.068 -0.03612,-0.0659 -0.0837,-0.0722 -0.191637,-0.0287 -0.265477,-0.11325 -0.265477,-0.31072 -0.0022,-0.0945 0.0022,-0.19079 0.0053,-0.28523 0.0031,-0.10198 0.101762,-0.17496 0.153035,-0.19004 0.110124,-0.034 0.0921,-0.17252 0.197544,-0.18537 -0.02623,-0.0892 0.112273,-0.0499 0.104099,-0.14554 -0.0149,-0.1961 -0.0022,-0.39592 -0.0085,-0.59488 -0.0042,-0.13035 -0.108508,-0.24284 -0.239016,-0.25028 -0.110846,0 -0.160002,-0.10623 -0.186284,-0.16126 -0.05268,-0.1093 -0.0513,-0.25803 -0.0053,-0.3667 0.0188,-0.0404 0.06417,-0.17793 0.190033,-0.15839 0.03251,0 0.02645,-0.0393 0.02794,-0.0637 0.0022,-0.0266 0,-0.0627 0.03634,-0.0605 0.09051,0.0107 0.07776,-0.0595 0.07914,-0.10728 0.01966,-0.2472 0.02178,-0.49609 0.0064,-0.74329 -0.0022,-0.0308 0.0042,-0.0648 -0.04313,-0.068 -0.08604,0 -0.09423,-0.1448 -0.201294,-0.11548 0.02485,-0.0956 -0.104209,-0.0797 -0.108524,-0.14691 -0.0096,-0.12238 -0.04005,-0.25878 0.01657,-0.35906 0.03325,-0.0574 0.07691,-0.18112 0.198978,-0.16678 0.0064,0 0.02347,-0.0276 0.02347,-0.0414 -0.0042,-0.0563 0.06257,-0.0786 0.06936,-0.0956 0.03091,-0.0924 0.16662,-0.12514 0.139447,-0.24582 -0.04079,-0.18856 0.06936,-0.38922 -0.0837,-0.5764 -0.05578,-0.068 -0.128904,-0.18229 -0.183246,-0.18537 -0.169659,-0.0107 -0.19611,-0.0956 -0.189321,-0.23222 0.0053,-0.0892 0.0022,-0.18016 0.0053,-0.26918 0.0022,-0.0276 0.0074,-0.0531 0.01428,-0.0797 0.109403,0.0266 0.08083,-0.16965 0.204332,-0.12822 0.0149,0.0107 0.01668,-0.0361 0.01668,-0.0584 0.0031,-0.0308 -0.0022,-0.0712 0.04451,-0.069 0,0 -0.0031,-0.30031 -0.01668,-0.72682 -0.0031,-0.12227 -0.0085,-0.243698 -0.01287,-0.387639 -0.0053,-0.161363 -0.0085,-0.323788 -0.0149,-0.485044 0,-0.02443 0.0022,-0.05631 -0.0113,-0.0786 -0.04144,-0.747324 -0.113874,-1.583454 -0.234554,-2.201816 l -0.08902,-0.399741 c -0.0149,-0.05099 -0.03325,-0.06798 -0.04759,-0.109199 h 3.841508 c 0.588882,-0.140326 1.027237,-0.636632 1.027237,-1.254993 -0.0022,-0.727139 -0.591559,-1.317456 -1.335089,-1.317456 z"
       id="path3609"
       inkscape:connector-curvature="0"
       style="fill:#222222;fill-opacity:1;stroke-width:1.06229329" /><g
       style="fill:#222222;fill-opacity:1"
       transform="matrix(0.17877466,0,0,0.17877466,-289.81486,-185.36987)"
       id="g3611"><linearGradient
         id="SVGID_1_"
         gradientUnits="userSpaceOnUse"
         x1="1146.1938"
         y1="1567.3887"
         x2="1146.1938"
         y2="1333.3677"><stop
           offset="0"
           style="stop-color:#353535"
           id="stop3614" /><stop
           offset="1"
           style="stop-color:#595959"
           id="stop3616" /></linearGradient><path
         d="m 1158.829,1202.894 c -0.283,0 -0.477,3.413 -0.755,3.413 -0.662,2.278 -1.514,4.556 -1.704,6.825 -2.923,20.176 -6.133,40.365 -8.31,60.445 -2.636,23.686 -6.707,48.616 -8.027,72.302 -1.131,18.084 -1.89,36.19 -2.451,54.282 -1.797,30.705 -3.218,124.307 -3.598,147.237 0,0.093 0,0.093 0,0.186 v 0.101 c 0.101,0.949 -0.274,5.885 -0.274,6.446 -0.093,2.843 -0.287,5.683 0,8.529 0,0.38 -0.093,0.565 -0.093,0.853 h 25.213 v -360.619 z"
         id="path3618"
         style="fill:#222222;fill-opacity:1"
         inkscape:connector-curvature="0" /></g><text
       id="text11633"
       y="87.125069"
       x="-39.741295"
       style="font-style:normal;font-weight:normal;font-size:30.54276657px;line-height:19.01953697px;font-family:sans-serif;letter-spacing:0px;word-spacing:0px;fill:#353535;fill-opacity:1;stroke:none;stroke-width:0.76078129"
       xml:space="preserve"><tspan
         style="font-style:normal;font-variant:normal;font-weight:900;font-stretch:normal;font-size:28.4025135px;font-family:Roboto;-inkscape-font-specification:'Roboto Heavy';fill:#353535;fill-opacity:1;stroke-width:0.76078129"
         y="87.125069"
         x="-39.741295"
         id="tspan11631"
         sodipodi:role="line">COMMANDO</tspan></text>
<text
       transform="scale(0.98121263,1.0191471)"
       id="text4539"
       y="109.85054"
       x="-42.180035"
       style="font-style:normal;font-variant:normal;font-weight:normal;font-stretch:normal;font-size:29.52661514px;line-height:18.23932457px;font-family:'Roboto Condensed';-inkscape-font-specification:'Roboto Condensed, ';letter-spacing:0px;word-spacing:0px;fill:#087b38;fill-opacity:1;stroke:none;stroke-width:0.72957307"
       xml:space="preserve"><tspan
         style="font-style:normal;font-variant:normal;font-weight:300;font-stretch:normal;font-family:Roboto;-inkscape-font-specification:'Roboto Light';fill:#087b38;fill-opacity:1;stroke-width:0.72957307"
         y="109.85054"
         x="-42.180035"
         id="tspan4537"
         sodipodi:role="line">Development</tspan></text>
<text
       id="text6733"
       y="135.74536"
       x="-58.581905"
       style="font-style:normal;font-variant:normal;font-weight:normal;font-stretch:normal;font-size:17.16581345px;line-height:22.98993111px;font-family:Raleway;-inkscape-font-specification:Raleway;letter-spacing:0px;word-spacing:0px;fill:#087b38;fill-opacity:1;stroke:none;stroke-width:0.91959715"
       xml:space="preserve"><tspan
         style="fill:#087b38;fill-opacity:1;stroke-width:0.91959715"
         y="135.74536"
         x="-58.581905"
         id="tspan6731"
         sodipodi:role="line">https://commando.dev</tspan></text>
</g></svg>